<svg xmlns="http://www.w3.org/2000/svg" xmlns:xlink="http://www.w3.org/1999/xlink" width="315.722" height="244.53" viewBox="0 0 315.722 244.53">
  <defs>
    <clipPath id="clip-path">
      <rect id="Rectangle_14" data-name="Rectangle 14" width="315.722" height="244.53" transform="translate(71 359.5)" fill="#21293e" stroke="#707070" stroke-width="1"/>
    </clipPath>
  </defs>
  <g id="Mask_Group_5" data-name="Mask Group 5" transform="translate(-71 -359.5)" clip-path="url(#clip-path)">
    <g id="headphone" transform="translate(116.576 359.242)">
      <g id="Group_20" data-name="Group 20" transform="translate(3.286 3.586)">
        <g id="Group_17" data-name="Group 17">
          <path id="Path_202" data-name="Path 202" d="M217.7,189.631c-3.879,0-7.022-3.44-7.022-7.684V126.087c0-57.214-42.544-103.762-94.836-103.762S21,68.872,21,126.087v55.861c0,4.244-3.144,7.684-7.023,7.684s-7.022-3.44-7.022-7.684V126.087c0-31.821,11.326-61.736,31.891-84.237S86.756,6.958,115.84,6.958,172.265,19.349,192.83,41.85s31.891,52.416,31.891,84.237v55.861C224.721,186.191,221.577,189.631,217.7,189.631Z" transform="translate(-6.958 -6.958)" fill="none"/>
        </g>
        <g id="Group_18" data-name="Group 18" transform="translate(141.571 116.404)">
          <path id="Path_203" data-name="Path 203" d="M362.379,353.193h7.506c23.415,0,42.4-20.713,42.4-46.263s-18.982-46.263-42.4-46.263h-7.506Z" transform="translate(-336.089 -246.324)" fill="none"/>
          <path id="Path_204" data-name="Path 204" d="M369.884,260.667h-7.506v.408c20.749,3.009,36.759,22.391,36.759,45.855s-16.009,42.846-36.759,45.855v.408h7.506c23.415,0,42.4-20.713,42.4-46.263S393.3,260.667,369.884,260.667Z" transform="translate(-336.089 -246.324)" fill="none"/>
          <path id="Path_205" data-name="Path 205" d="M306.715,339.7V247.178c0-7.922,5.885-14.343,13.145-14.343S333,239.257,333,247.178V339.7c0,7.922-5.885,14.343-13.145,14.343S306.715,347.626,306.715,339.7Z" transform="translate(-306.715 -232.835)" fill="none"/>
          <path id="Path_206" data-name="Path 206" d="M327.2,232.835a12.254,12.254,0,0,0-6.572,1.923,14.612,14.612,0,0,1,6.572,12.42V339.7a14.613,14.613,0,0,1-6.572,12.42,12.254,12.254,0,0,0,6.572,1.923c7.259,0,13.145-6.421,13.145-14.343V247.178C340.347,239.257,334.463,232.835,327.2,232.835Z" transform="translate(-314.058 -232.835)" fill="none"/>
        </g>
        <g id="Group_19" data-name="Group 19" transform="translate(0 116.404)">
          <path id="Path_207" data-name="Path 207" d="M56.861,353.193H49.356c-23.415,0-42.4-20.713-42.4-46.263s18.982-46.263,42.4-46.263h7.506Z" transform="translate(-6.958 -246.324)" fill="none"/>
          <path id="Path_208" data-name="Path 208" d="M138.911,339.7V247.178c0-7.922-5.885-14.343-13.145-14.343s-13.145,6.421-13.145,14.343V339.7c0,7.922,5.885,14.343,13.145,14.343S138.911,347.626,138.911,339.7Z" transform="translate(-62.718 -232.835)" fill="none"/>
          <path id="Path_209" data-name="Path 209" d="M133.11,232.835a12.254,12.254,0,0,0-6.572,1.923,14.612,14.612,0,0,1,6.572,12.42V339.7a14.612,14.612,0,0,1-6.572,12.42,12.254,12.254,0,0,0,6.572,1.923c7.26,0,13.145-6.421,13.145-14.343V247.178C146.254,239.257,140.369,232.835,133.11,232.835Z" transform="translate(-70.062 -232.835)" fill="none"/>
        </g>
      </g>
      <path id="Path_210" data-name="Path 210" d="M224.335,122.714c0-32.776-11.666-63.591-32.849-86.769S142.128,0,112.168,0a103.594,103.594,0,0,0-34.51,5.89A3.662,3.662,0,0,0,75.54,10.4a3.238,3.238,0,0,0,4.137,2.311,97.541,97.541,0,0,1,32.491-5.543c28.2,0,54.719,12.018,74.666,33.838s30.929,50.841,30.929,81.7v32.147a49.706,49.706,0,0,0-7.475-10.191V122.714c0-59.192-44.017-107.348-98.12-107.348s-98.12,48.156-98.12,107.348V144.67a49.707,49.707,0,0,0-7.475,10.191V122.714c0-30.864,10.984-59.881,30.929-81.7A106.43,106.43,0,0,1,65.993,18.735a3.739,3.739,0,0,0,1.511-4.8,3.167,3.167,0,0,0-4.395-1.648A113.021,113.021,0,0,0,32.848,35.946C11.666,59.123,0,89.939,0,122.714V180.6c0,27.487,20.493,49.849,45.684,49.849h4.55c1.527,8.174,8.165,14.343,16.1,14.343,9.06,0,16.431-8.043,16.431-17.929V134.333c0-9.886-7.371-17.929-16.431-17.929-7.935,0-14.573,6.169-16.1,14.343h-4.55a42.752,42.752,0,0,0-25.064,8.194V122.714c0-55.237,41.068-100.177,91.548-100.177s91.548,44.939,91.548,100.177v16.227a42.75,42.75,0,0,0-25.064-8.194H174.1c-1.527-8.174-8.165-14.343-16.1-14.343-9.06,0-16.431,8.043-16.431,17.929v49.505a3.3,3.3,0,1,0,6.572,0V134.333c0-5.932,4.422-10.757,9.858-10.757s9.859,4.825,9.859,10.757v92.526c0,5.932-4.422,10.757-9.859,10.757s-9.858-4.825-9.858-10.757V200.572a3.3,3.3,0,1,0-6.572,0v26.287c0,9.886,7.371,17.929,16.431,17.929,7.935,0,14.574-6.169,16.1-14.343h4.55c25.19,0,45.684-22.362,45.684-49.849V122.714ZM56.476,134.333c0-5.932,4.422-10.757,9.858-10.757s9.858,4.825,9.858,10.757v92.526c0,5.932-4.422,10.757-9.858,10.757s-9.858-4.825-9.858-10.757Zm-10.792,3.586H49.9v85.354H45.684c-21.566,0-39.111-19.145-39.111-42.677s17.545-42.677,39.111-42.677Zm132.968,85.354h-4.219V137.919h4.219c21.566,0,39.112,19.145,39.112,42.677S200.218,223.273,178.652,223.273Z" transform="translate(0 0)" fill="#21293e"/>
    </g>
  </g>
</svg>
