<svg xmlns="http://www.w3.org/2000/svg" xmlns:xlink="http://www.w3.org/1999/xlink" width="521" height="521" viewBox="0 0 521 521">
  <defs>
    <clipPath id="clip-path">
      <rect id="Rectangle_15" data-name="Rectangle 15" width="521" height="521" transform="translate(490 92)" fill="#21293e" stroke="#707070" stroke-width="1"/>
    </clipPath>
  </defs>
  <g id="Mask_Group_6" data-name="Mask Group 6" transform="translate(-490 -92)" clip-path="url(#clip-path)">
    <g id="cd" transform="translate(490 92)">
      <g id="Group_23" data-name="Group 23">
        <g id="Group_22" data-name="Group 22">
          <g id="Group_21" data-name="Group 21">
            <path id="Path_211" data-name="Path 211" d="M260.5,0C116.862,0,0,116.862,0,260.5S116.862,521,260.5,521,521,404.138,521,260.5,404.138,0,260.5,0Zm0,502.72c-133.561,0-242.22-108.659-242.22-242.22S126.939,18.28,260.5,18.28,502.72,126.939,502.72,260.5,394.061,502.72,260.5,502.72Z" fill="#21293e"/>
            <path id="Path_212" data-name="Path 212" d="M175.2,115.79A59.412,59.412,0,1,0,234.613,175.2,59.481,59.481,0,0,0,175.2,115.79Zm0,100.543A41.132,41.132,0,1,1,216.333,175.2,41.177,41.177,0,0,1,175.2,216.333Z" transform="translate(85.298 85.298)" fill="#21293e"/>
          </g>
        </g>
      </g>
      <g id="Group_26" data-name="Group 26" transform="translate(164.526 164.526)">
        <g id="Group_25" data-name="Group 25">
          <g id="Group_24" data-name="Group 24">
            <path id="Path_213" data-name="Path 213" d="M190.711,94.737a95.974,95.974,0,1,0,95.974,95.974A96.08,96.08,0,0,0,190.711,94.737Zm0,173.667A77.693,77.693,0,1,1,268.4,190.711,77.787,77.787,0,0,1,190.711,268.4Z" transform="translate(-94.737 -94.737)" fill="#21293e"/>
            <path id="Path_214" data-name="Path 214" d="M175.2,115.79A59.412,59.412,0,1,0,234.613,175.2,59.481,59.481,0,0,0,175.2,115.79Zm0,100.543A41.132,41.132,0,1,1,216.333,175.2,41.177,41.177,0,0,1,175.2,216.333Z" transform="translate(-79.228 -79.228)" fill="#21293e"/>
          </g>
        </g>
      </g>
      <g id="Group_28" data-name="Group 28" transform="translate(53.681 73.868)">
        <g id="Group_27" data-name="Group 27">
          <path id="Path_215" data-name="Path 215" d="M138.308,47a9.135,9.135,0,0,0-12.531-3.179,209.718,209.718,0,0,0-94.5,121.93,9.136,9.136,0,1,0,17.544,5.107A191.5,191.5,0,0,1,135.128,59.535,9.142,9.142,0,0,0,138.308,47Z" transform="translate(-30.91 -42.534)" fill="#21293e"/>
        </g>
      </g>
    </g>
  </g>
</svg>
