<svg xmlns="http://www.w3.org/2000/svg" xmlns:xlink="http://www.w3.org/1999/xlink" width="864" height="858" viewBox="0 0 864 858">
  <defs>
    <clipPath id="clip-path">
      <rect id="Rectangle_8" data-name="Rectangle 8" width="864" height="858" transform="translate(133 615)" fill="#fff" stroke="#707070" stroke-width="1"/>
    </clipPath>
    <linearGradient id="linear-gradient" x1="-0.232" y1="0.5" x2="0.769" y2="0.5" gradientUnits="objectBoundingBox">
      <stop offset="0" stop-color="gray" stop-opacity="0.251"/>
      <stop offset="0.54" stop-color="gray" stop-opacity="0.122"/>
      <stop offset="1" stop-color="gray" stop-opacity="0.102"/>
    </linearGradient>
    <linearGradient id="linear-gradient-2" x1="-3.46" y1="0.929" x2="-3.46" y2="-0.082" xlink:href="#linear-gradient"/>
  </defs>
  <g id="Mask_Group_4" data-name="Mask Group 4" transform="translate(-133 -615)" clip-path="url(#clip-path)">
    <g id="undraw_compose_music_ovo2" transform="translate(133 758.68)">
      <circle id="Ellipse_1" data-name="Ellipse 1" cx="16.994" cy="16.994" r="16.994" transform="translate(757.354 274.559)" fill="#6c63ff" opacity="0.1"/>
      <circle id="Ellipse_2" data-name="Ellipse 2" cx="28.481" cy="28.481" r="28.481" transform="translate(806.656 187.301)" fill="#6c63ff" opacity="0.1"/>
      <circle id="Ellipse_3" data-name="Ellipse 3" cx="16.994" cy="16.994" r="16.994" transform="translate(340.741 4.828)" fill="#6c63ff" opacity="0.1"/>
      <circle id="Ellipse_4" data-name="Ellipse 4" cx="16.994" cy="16.994" r="16.994" transform="translate(535.675 24.36)" fill="#6c63ff" opacity="0.1"/>
      <circle id="Ellipse_5" data-name="Ellipse 5" cx="28.481" cy="28.481" r="28.481" transform="translate(0 227.819)" fill="#6c63ff" opacity="0.1"/>
      <path id="Path_12" data-name="Path 12" d="M488.663,127.693c-50.849-1.893-99.278-19.524-145.523-38.82S251.082,48.214,201.49,37.992c-31.922-6.576-68.425-7.511-94.148,10.874C82.554,66.591,74.556,97.1,70.282,125.43c-3.237,21.323-5.138,43.762,3.724,63.718,6.152,13.859,17.081,25.5,24.639,38.773,26.3,46.182,7.708,103.136-20.789,148.226C64.5,397.3,48.99,417.474,38.674,439.992s-15.109,48.319-6.1,71.292c8.941,22.785,30.256,39.865,53.348,51.855,46.9,24.427,102.138,31.427,156.044,35.356,119.282,8.768,239.207,4.973,358.811,1.171,44.257-1.406,88.719-2.836,132.261-10.214,24.183-4.086,49.144-10.567,66.7-26.21,22.29-19.854,27.813-53.481,12.877-78.379-25.047-41.767-94.281-52.145-111.81-96.968-9.632-24.67.259-52.153,14.268-75.032,30.036-49.089,80.4-92.152,83.046-148.265,1.823-38.5-22.384-77.122-59.814-95.358C699.06,50.123,644.66,52.527,615.731,84.166,585.938,116.874,533.557,129.374,488.663,127.693Z" transform="translate(-10.885 -33.683)" fill="#6c63ff" opacity="0.1"/>
      <path id="Path_13" data-name="Path 13" d="M337.286,210.236a4.643,4.643,0,0,0,1.045,2.718,15.446,15.446,0,0,0,4.18,3.551v4.258s12.571,10.5,15.156,14.472c2.491,3.787,5.036,7.645,8.58,10.465a7.739,7.739,0,0,0,3.2,1.7h.212a3.323,3.323,0,0,1-1.226.786,2.907,2.907,0,0,0,3.426,2.459,5.726,5.726,0,0,0,1.7-.849l4.981-3.221a14.268,14.268,0,0,0,2.318-1.736c.927-.935,1.571-2.106,2.483-3.064,1.571-1.634,3.8-2.608,4.895-4.573a22.1,22.1,0,0,0,1.226-4.023c.275-.88.676-1.713.943-2.593a9.374,9.374,0,0,0,.322-1.618c.173.149.354.3.542.44.385-.251,1.123.409.951.833s-.589.731-.731,1.171c-.314,1.006.927,1.752,1.446,2.671s.251,2.1.306,3.143.534,2.3.684,3.473c.361,2.734-.99,5.618,0,8.2a2.585,2.585,0,0,0-2.554,1.988,7.526,7.526,0,0,0,.1,3.5,4.808,4.808,0,0,0-2.357,4.392,1.077,1.077,0,0,1-.11.786,1.116,1.116,0,0,1-.448.259,4.431,4.431,0,0,0-2.734,4.117,2.043,2.043,0,0,1-.079.872,2.067,2.067,0,0,1-.644.66,5.123,5.123,0,0,0-1.909,4.007,2.907,2.907,0,0,0,1.351,2.624h.055a14.142,14.142,0,0,0-4.714,8.949,36.738,36.738,0,0,0,.613,9.263h.283v.228a4.124,4.124,0,0,0,.448,1.336,19.138,19.138,0,0,1,1.689,6.883,6.1,6.1,0,0,0,.236,1.736,8.749,8.749,0,0,0,.888,1.524,16.209,16.209,0,0,1,1.642,5.735,45.338,45.338,0,0,0,2,7.519c1.2,3.331,2.821,6.741,2.271,10.214a10.21,10.21,0,0,0-.314,2.522,7.377,7.377,0,0,0,.99,2.648,24.55,24.55,0,0,1,1.1,2.451,1.981,1.981,0,0,0,.487,1.328c.094.259.173.526.251.786s.134.416.2.629a8.093,8.093,0,0,1,.244,1.069l-.047.825v.786a1.957,1.957,0,0,1-.377.7,2.806,2.806,0,0,1-.2.228l-.189.212a1.415,1.415,0,0,0-.212.306h0a1.469,1.469,0,0,0-.063.9,1.434,1.434,0,0,0,.079.354c.2.849.409,1.7.621,2.538.063.259.134.511.2.786.173.66.346,1.328.526,1.988v.086l.118.44.448,1.618c.094.322.189.636.275.959l.346,1.171q.4,1.367.825,2.734c2.8,9.255,5.814,18.456,7.668,27.947a3.009,3.009,0,0,0,1.123,1.681,6.477,6.477,0,0,0,1.956,1.053c.181,1.391.628,3.088.683,3.928.173,2.742.3,5.665-.7,8.163a.66.66,0,0,0-.6.188,24.378,24.378,0,0,0-1.8,1.909L399.9,402.35a6.089,6.089,0,0,0-.833,1.014,3.544,3.544,0,0,0-.354,2.9,3.928,3.928,0,0,0,1.893,2.247,3.144,3.144,0,0,1,.6.338,3.54,3.54,0,0,0,.369.314,1.429,1.429,0,0,0,.786.149,28.056,28.056,0,0,0,6.183-1.053,4.958,4.958,0,0,0,2.554-1.2,4.777,4.777,0,0,0,.872-1.7l.739-2.043a23.259,23.259,0,0,0,1.123-3.811,7.854,7.854,0,0,0-.2-3.928.786.786,0,0,0-.189.322c.181-1.139.354-2.286.534-3.433.055-.338.1-.684.149-1.037.236,3.056-.212,6.136-.071,9.2a10.731,10.731,0,0,0-.306,1.721c.2,2.813,1.375,5.885,3.645,7.558a3.731,3.731,0,0,0,1.249.652,4.412,4.412,0,0,0,1.289,0,16.423,16.423,0,0,0,4.9-.927,6.026,6.026,0,0,0,3.528-3.347,7.853,7.853,0,0,0,.354-2.42,9.3,9.3,0,0,0-.228-2.554,19.481,19.481,0,0,0-1.289-2.978,28.419,28.419,0,0,1-1.461-4.384l-.684-2.491c-.189-.707-.385-1.414-.629-2.106a3.528,3.528,0,0,0-.872-1.658c-.283-.22-.471-.236-.6-.11v-.267a28.161,28.161,0,0,0,.181-2.915c-.188-1.571-1.438-2.852-2.247-4.25a8.3,8.3,0,0,1-.9-2.247c-.047-.173-.079-.338-.11-.519a1.827,1.827,0,0,1,.448-.291l1.4.786c-1.234-9.271-.581-18.99-4.18-27.617-1.571-3.756-4.6-7.668-4.258-11.714a3.3,3.3,0,0,1,.369-5.264c.6-.33,1.351-.487,1.768-1.045a2.851,2.851,0,0,0,.4-1.014,160.734,160.734,0,0,1,7.763-23.3c.7-1.658,1.422-3.3,2.153-4.942l2.436-5.539,2.97-6.741c1.006-2.271,2.019-4.863,1.069-7.15-.377-.9-1.045-1.76-.951-2.726a17.136,17.136,0,0,1,.581-1.8,4.478,4.478,0,0,0-.149-1.956c-.2-.849-.416-1.7-.644-2.538a14.153,14.153,0,0,1,1.893.361c.377-.636-.228-1.375-.6-2.019a6.827,6.827,0,0,1-.684-2.8l-.786-7.928a14.067,14.067,0,0,1-.063-3.3c.157-1.163.605-2.271.833-3.433.432-2.223,0-4.518.141-6.788a30.432,30.432,0,0,1,1.037-5.908c.071-.291.133-.574.2-.864a4.717,4.717,0,0,0,1.139.2h.974a3.139,3.139,0,0,0,.432-.11h.094a4.727,4.727,0,0,0,.464-.181c-.189-.4-.361-.786-.526-1.21-.071-.165-.133-.33-.2-.495s-.181-.464-.259-.7-.157-.432-.228-.644-.118-.361-.173-.542-.149-.495-.22-.786-.141-.519-.212-.786l.118-.244a6.89,6.89,0,0,0,1.3.888c1.571,2.711,2.993,5.5,4.305,8.312a2.64,2.64,0,0,0,.4-1.013,4.862,4.862,0,0,0,.558.715,8.331,8.331,0,0,0,1.831,1.343,4.713,4.713,0,0,0,2.169.786,4.046,4.046,0,0,0,2.773-1.2c2.286-2,3.426-4.981,4.486-7.857a59.146,59.146,0,0,0,3.378-11.573c.644-4.266.369-8.7,1.571-12.838-1.092-2.168-1.784-4.565-3.009-6.663a29.789,29.789,0,0,1-2.074-3.889,13.436,13.436,0,0,1-.369-8.988,1.234,1.234,0,0,0-1.438.079,3.007,3.007,0,0,0-.864,1.257A11.148,11.148,0,0,0,448.6,201a2.106,2.106,0,0,1-.149,1.289,1.618,1.618,0,0,1-1.4.589,12.052,12.052,0,0,1-3.237-.589,30.075,30.075,0,0,0-9.02-.88,7.156,7.156,0,0,0-.786-.786l-.338-.275-.346-.267-.173-.141a3.927,3.927,0,0,1-.33-.291,2.177,2.177,0,0,1-.786-1.375,1.768,1.768,0,0,1,0-.2,1.531,1.531,0,0,1,0-.189,2.65,2.65,0,0,1,.181-.55,3.689,3.689,0,0,1,.173-.354l.086-.181c0-.055.055-.118.086-.173a5.184,5.184,0,0,0,.251-.66,4.831,4.831,0,0,0,.165-.684,5.138,5.138,0,0,0,.071-.7q0-.354,0-.707v-.354a7.143,7.143,0,0,0-.291-1.4,7.752,7.752,0,0,0-.377-1.006,11.121,11.121,0,0,0-.668-1.241,19,19,0,0,0-1.681-2.286l-.464-.542-.471-.534a18.686,18.686,0,0,1-1.367-1.673,6.5,6.5,0,0,1-.786-1.4c-.063-.165-.118-.33-.165-.5a5.107,5.107,0,0,1-.141-.974v-.322a12.093,12.093,0,0,1,.063-1.312c.063-.613.149-1.234.236-1.862.055-.416.118-.833.173-1.249a4.19,4.19,0,0,1,.079-.621c.047-.416.094-.833.126-1.249a11.969,11.969,0,0,0-.2-3.638,6.89,6.89,0,0,0-.369-1.163,7.381,7.381,0,0,0-.786-1.414,10.214,10.214,0,0,0-4.368-3.4,20.114,20.114,0,0,0-4-1.281c-.55-.118-1.092-.22-1.634-.306-8.171-1.312-16.845,1.171-22,7.857a30.481,30.481,0,0,0-5.948,11.652,16.633,16.633,0,0,0,1.878,12.7c1.013,1.571,2.357,2.891,3.245,4.51.739,1.32,1.178,2.8,1.972,4.093a9.664,9.664,0,0,0,4.36,3.669l-.346.314a10.589,10.589,0,0,0-2.444.047c-.833.141-1.642.464-2.483.566-1.037.134-2.1-.071-3.143.063-1.933.251-3.52,1.571-4.989,2.868-1.721,1.5-3.567,3.253-3.7,5.5v.063l-1.155,1.571a6.2,6.2,0,0,0-.723,1.139c-.464,1.092-.2,2.357-.456,3.52a7.526,7.526,0,0,1-.911,2.1,47.2,47.2,0,0,1-3.928,5.861,9.93,9.93,0,0,1-2.443,2.42,4.4,4.4,0,0,1-2.546.723,16.32,16.32,0,0,1-3.724-2.491,24.019,24.019,0,0,1-3.292-4.093c-1.87-2.695,3.928,5.366,2.059,2.663l-16.766-27.939a22.777,22.777,0,0,1-.66-3.975c0-.511-.212-1.186-.731-1.2a.888.888,0,0,0-.589.283,3.41,3.41,0,0,0-1.092,2.907,4.031,4.031,0,0,0-2.569.456,1.469,1.469,0,0,0-.322,2.09v.212a1.116,1.116,0,0,0-.589,1.178,3.991,3.991,0,0,0-2.758.134c-.825.464-1.139,1.823-.338,2.357a2.412,2.412,0,0,0-1.54,2.278Zm105.029,4.007a13,13,0,0,0,1.469.377,23.45,23.45,0,0,1,4.557,1.571,2.5,2.5,0,0,1,1.186.888,2.64,2.64,0,0,1-.141,2.231l-2.074,5.6c-.33.88-.652,1.76-1.061,2.6-.157.338-.338.676-.519,1.006q-.094-.283-.189-.542a45.974,45.974,0,0,1-1.493-5.217c-.346-1.524-.636-3.064-.88-4.6a22.5,22.5,0,0,0-.872-3.913Zm-2.168-4.392.157.11a1.768,1.768,0,0,1,.542.377.841.841,0,0,1,0,.786Zm-3.748-5.4,2.483.361a3.26,3.26,0,0,1,1.674.574,1.124,1.124,0,0,1,.228,1.571,3.746,3.746,0,0,1-.55.369,1.571,1.571,0,0,0-.589,1.626,17.607,17.607,0,0,0-1.422-2.208,10.922,10.922,0,0,0-1.658-1.7C436.509,204.854,436.462,204.65,436.4,204.453ZM412.538,383.061a8.88,8.88,0,0,0,.919,0,8.821,8.821,0,0,0-.149,2.231Z" transform="translate(308.494 100.606)" fill="url(#linear-gradient)"/>
      <path id="Path_14" data-name="Path 14" d="M390.405,164.968c4.313.691,9.106,2.357,10.756,6.4,1.241,3.056.283,6.49,0,9.774a7.417,7.417,0,0,0,.094,2.6,9.122,9.122,0,0,0,2.278,3.575,19.045,19.045,0,0,1,3.284,4.6,6.694,6.694,0,0,1,.22,5.5,4,4,0,0,0-.542,1.446c-.055,1.124,1.116,1.831,1.98,2.546,3.237,2.679,3.1,7.558,3.143,11.785a59.493,59.493,0,0,0,5.625,24.859,7.6,7.6,0,0,1-8.5-1.108,28.627,28.627,0,0,0,1.933,5.563c-2.742,1.328-6.042-.856-7.409-3.567s-1.571-5.877-2.514-8.752-2.742-5.413-3.528-8.312a7.989,7.989,0,0,0-.982-2.781,7.072,7.072,0,0,0-1.729-1.469,16.814,16.814,0,0,1-6.089-8.265,32.39,32.39,0,0,1-10.214,1.179c-3.441-.306-6.906-1.862-8.705-4.785-.786-1.289-1.234-2.773-1.972-4.093-.9-1.618-2.239-2.946-3.253-4.5a16.621,16.621,0,0,1-1.87-12.689,30.255,30.255,0,0,1,5.948-11.636C373.568,166.138,382.242,163.655,390.405,164.968Z" transform="translate(333.927 101.46)" fill="#3a3768"/>
      <path id="Path_15" data-name="Path 15" d="M390.405,164.968c4.313.691,9.106,2.357,10.756,6.4,1.241,3.056.283,6.49,0,9.774a7.417,7.417,0,0,0,.094,2.6,9.122,9.122,0,0,0,2.278,3.575,19.045,19.045,0,0,1,3.284,4.6,6.694,6.694,0,0,1,.22,5.5,4,4,0,0,0-.542,1.446c-.055,1.124,1.116,1.831,1.98,2.546,3.237,2.679,3.1,7.558,3.143,11.785a59.493,59.493,0,0,0,5.625,24.859,7.6,7.6,0,0,1-8.5-1.108,28.627,28.627,0,0,0,1.933,5.563c-2.742,1.328-6.042-.856-7.409-3.567s-1.571-5.877-2.514-8.752-2.742-5.413-3.528-8.312a7.989,7.989,0,0,0-.982-2.781,7.072,7.072,0,0,0-1.729-1.469,16.814,16.814,0,0,1-6.089-8.265,32.39,32.39,0,0,1-10.214,1.179c-3.441-.306-6.906-1.862-8.705-4.785-.786-1.289-1.234-2.773-1.972-4.093-.9-1.618-2.239-2.946-3.253-4.5a16.621,16.621,0,0,1-1.87-12.689,30.255,30.255,0,0,1,5.948-11.636C373.568,166.138,382.242,163.655,390.405,164.968Z" transform="translate(333.927 101.46)" fill="#3f3d56"/>
      <path id="Path_16" data-name="Path 16" d="M395.884,194.919c.244,1.571.534,3.08.888,4.612a44.107,44.107,0,0,0,1.485,5.2,5,5,0,0,1,.464,2.357,4.406,4.406,0,0,1-.574,1.43c-1.972,3.5-4.628,6.875-4.855,10.882a5.855,5.855,0,0,1-.534,2.9q-2.286-4.9-5.036-9.57c-1.917-3.253-4.046-6.537-4.6-10.277a19.487,19.487,0,0,1,.063-5.28,11.494,11.494,0,0,1,1.9-5.555c1.3-1.7,4.871-4.266,7.181-3.74C394.981,188.539,395.539,192.727,395.884,194.919Z" transform="translate(355.648 125.382)" fill="#f86d70"/>
      <path id="Path_17" data-name="Path 17" d="M373.668,220.2a23.41,23.41,0,0,1-7.252-4.054,23.658,23.658,0,0,1-3.292-4.086l-6.058-8.752c-1.438-2.082-2.915-4.266-3.221-6.773a22.29,22.29,0,0,1-6.058-13.749c0-.519-.2-1.186-.723-1.2a.911.911,0,0,0-.6.283,3.418,3.418,0,0,0-1.084,2.907,4.031,4.031,0,0,0-2.569.448c-.723.519-.911,1.8-.134,2.231a1.108,1.108,0,0,0-.786,1.249,3.928,3.928,0,0,0-2.758.134c-.786.464-1.139,1.815-.338,2.357a2.357,2.357,0,0,0-1.571,2.3,4.62,4.62,0,0,0,1.045,2.711c2.357,3.143,6.443,4.384,9.137,7.2a20.873,20.873,0,0,1,2.357,3.143l7.818,11.9c2.483,3.779,5.036,7.629,8.58,10.442a7.763,7.763,0,0,0,3.19,1.7,3.528,3.528,0,0,0,3.355-.927,5.475,5.475,0,0,0,.982-3.347C373.88,224.3,373.535,222.215,373.668,220.2Z" transform="translate(308.434 118.953)" fill="#a1616a"/>
      <path id="Path_18" data-name="Path 18" d="M368.724,285.3a6.792,6.792,0,0,0-.833,1.013,3.543,3.543,0,0,0-.354,2.9,3.929,3.929,0,0,0,1.893,2.239,3.7,3.7,0,0,1,.6.346,3.533,3.533,0,0,0,.369.314,1.429,1.429,0,0,0,.786.149,28.609,28.609,0,0,0,6.183-1.053,4.958,4.958,0,0,0,2.553-1.2,5.082,5.082,0,0,0,.872-1.689l.731-2.043a23.982,23.982,0,0,0,1.131-3.8,7.919,7.919,0,0,0-.2-3.928,1.281,1.281,0,0,0-.275.786,8.7,8.7,0,0,1-1.571,3.81,3.882,3.882,0,0,1-.613.786,4,4,0,0,1-1.839.786,22.6,22.6,0,0,1-3.928.5,1.226,1.226,0,0,1-.534-.063.935.935,0,0,1-.448-.558,2.357,2.357,0,0,1,0-1.571c.354-.99,1.328-1.642,1.8-2.593.346-.7-.134-1.469-.849-.88a21.759,21.759,0,0,0-1.8,1.909Z" transform="translate(339.549 219.019)" fill="#3f3d56"/>
      <path id="Path_19" data-name="Path 19" d="M373.655,278.686c.212,3.292.354,6.843-1.446,9.6-.644,1-1.516,1.831-2.255,2.766a3.244,3.244,0,0,0-.786,1.666,2.549,2.549,0,0,0,2.216,2.459,7.33,7.33,0,0,0,3.559-.511,8.571,8.571,0,0,0,3.025-1.422c1.571-1.328,1.98-3.536,2.294-5.563l.731-4.714a14.851,14.851,0,0,0,.267-3.433,15.289,15.289,0,0,0-.919-3.7l-1.21-3.535a1.665,1.665,0,0,0-.534-.88,1.571,1.571,0,0,0-.919-.165c-1.155.055-4.07.479-4.628,1.7C372.539,274.05,373.576,277.444,373.655,278.686Z" transform="translate(341.391 211.487)" fill="#ee8e9e"/>
      <path id="Path_20" data-name="Path 20" d="M373.655,278.686c.212,3.292.354,6.843-1.446,9.6-.644,1-1.516,1.831-2.255,2.766a3.244,3.244,0,0,0-.786,1.666,2.549,2.549,0,0,0,2.216,2.459,7.33,7.33,0,0,0,3.559-.511,8.571,8.571,0,0,0,3.025-1.422c1.571-1.328,1.98-3.536,2.294-5.563l.731-4.714a14.851,14.851,0,0,0,.267-3.433,15.289,15.289,0,0,0-.919-3.7l-1.21-3.535a1.665,1.665,0,0,0-.534-.88,1.571,1.571,0,0,0-.919-.165c-1.155.055-4.07.479-4.628,1.7C372.539,274.05,373.576,277.444,373.655,278.686Z" transform="translate(341.391 211.487)" opacity="0.05"/>
      <path id="Path_21" data-name="Path 21" d="M358.634,231.087a.293.293,0,0,0,0,.086,3.929,3.929,0,0,0,.44,1.336,19.315,19.315,0,0,1,1.7,6.875A5.819,5.819,0,0,0,361,241.12a9.266,9.266,0,0,0,.888,1.524,16.165,16.165,0,0,1,1.642,5.728,45.27,45.27,0,0,0,2,7.511c1.2,3.323,2.821,6.733,2.271,10.214a10.218,10.218,0,0,0-.314,2.514,7.257,7.257,0,0,0,.982,2.648,24.577,24.577,0,0,1,1.108,2.451c.322.833.668,1.815.935,2.734.322,1.131.542,2.467-.2,3.371a3.831,3.831,0,0,0-.605.739,1.964,1.964,0,0,0,0,1.273q.636,2.687,1.367,5.366c.377,1.4.786,2.789,1.186,4.18,3.033,10.167,6.458,20.231,8.493,30.641.291,1.5,2.208,2.577,3.7,2.9a4.824,4.824,0,0,0,4.25-1.139,2.615,2.615,0,0,0,.3-.291c1.571-1.681,1.783-4.258,1.673-6.584-.526-10.717-5.924-20.522-8.493-30.94a59.581,59.581,0,0,1-1.666-11.479c-.6-12.94-.841-26.611,2.813-39.033.786-2.585,1.658-5.5.291-7.857a7.663,7.663,0,0,0-4.038-2.954,26.006,26.006,0,0,0-20.184.519,6.3,6.3,0,0,0,0,.786,7.958,7.958,0,0,1-.409,3.567,4.377,4.377,0,0,0-.353,1.579Z" transform="translate(330.523 161.544)" fill="#3f3d56"/>
      <path id="Path_22" data-name="Path 22" d="M386.17,278.516l.684,2.491a27.82,27.82,0,0,0,1.453,4.384,19.1,19.1,0,0,1,1.3,2.97,9.6,9.6,0,0,1,.22,2.553,7.8,7.8,0,0,1-.353,2.412,6.026,6.026,0,0,1-3.528,3.347,16.659,16.659,0,0,1-4.895.919,3.932,3.932,0,0,1-1.289,0,3.593,3.593,0,0,1-1.249-.652c-2.271-1.666-3.441-4.714-3.646-7.55a9.284,9.284,0,0,1,.385-1.925c.173-.236,1.894.731,1.155,1.571-1.084,1.2,2.1.581,3.716.479a14.927,14.927,0,0,0,2.106-.346l2.616-.558c.856-.189,1.846-.479,2.145-1.3s-.361-1.8-.872-2.593c-1.375-2.113-1.721-4.714-2.043-7.2-.063-.495-.676-3.677.589-2.687a3.536,3.536,0,0,1,.88,1.658C385.785,277.109,385.973,277.809,386.17,278.516Z" transform="translate(347.276 214.988)" fill="#3f3d56"/>
      <path id="Path_23" data-name="Path 23" d="M364.737,255c.786-.9.526-2.239.2-3.363-.126-.424-.251-.841-.393-1.257l10.285-3.473c0,.919.079,1.839.118,2.758a59.745,59.745,0,0,0,1.666,11.487c2.569,10.41,7.967,20.215,8.493,30.924.118,2.467-.141,5.225-1.964,6.89a4.863,4.863,0,0,1-4.258,1.131c-1.485-.322-3.41-1.4-3.7-2.9-2.035-10.41-5.5-20.475-8.493-30.641q-1.414-4.714-2.553-9.554a2,2,0,0,1,0-1.265A3.834,3.834,0,0,1,364.737,255Z" transform="translate(336.103 186.37)" opacity="0.05"/>
      <path id="Path_24" data-name="Path 24" d="M382.235,273.171c.786,1.4,2.051,2.64,2.239,4.243a24.3,24.3,0,0,1-.181,2.915,9.141,9.141,0,0,0,.432,2.357q1.493,5.421,3.457,10.7a2.931,2.931,0,0,1,.275,1.453,2.561,2.561,0,0,1-1.7,1.7c-2.443,1.045-5.209.974-7.857.864a4.11,4.11,0,0,1-2.216-.518,3.853,3.853,0,0,1-1.249-3.088c-.181-3.339.385-6.694,0-10.017-.126-1.21-.385-2.4-.574-3.6a10.554,10.554,0,0,1,.157-5.028,11.509,11.509,0,0,1,1.878-3.143,9.837,9.837,0,0,1,2.616-2.608c.314-.189,1.2-.786,1.516-.4.165.181.094.668.118.9a8.944,8.944,0,0,0,.181,1.037A8.527,8.527,0,0,0,382.235,273.171Z" transform="translate(347.032 209.042)" fill="#ee8e9e"/>
      <path id="Path_25" data-name="Path 25" d="M379.1,235.267a2.844,2.844,0,0,1,.2,2.357c-.346,1.422-.911,2.781-1.375,4.172a58.059,58.059,0,0,0-1.776,7.582c-.432,2.318-1.343,4.895-.966,7.228a51.5,51.5,0,0,0-5.5,17.136c-.212,1.532,3.2,3.52,3.143,5.068-.126,3.08-2.585,3.323-.786,5.783.086.126-.684,2.876-.581,2.993.739.888,1.673,1.571,2.467,2.428a18.57,18.57,0,0,1,2.6,3.811c4.714,8.47,11.463,18.071,9.373,27.5a1.681,1.681,0,0,0,.9,1.7,4.626,4.626,0,0,0,1.98.456h.33c1.571-1.681,1.784-4.258,1.674-6.584-.526-10.717-5.924-20.522-8.493-30.94a59.6,59.6,0,0,1-1.666-11.479c-.605-12.94-.841-26.611,2.813-39.033.786-2.585,1.658-5.5.291-7.857a7.662,7.662,0,0,0-4.038-2.954,26.006,26.006,0,0,0-20.184.519,6.284,6.284,0,0,0,0,.786,7.959,7.959,0,0,1-.409,3.567,4.377,4.377,0,0,0-.4,1.571s-.189-2.082-.189-2.051c4.2.6,8.587,3.347,12.791,3.928a29.212,29.212,0,0,1,6.411,1.414A2.781,2.781,0,0,1,379.1,235.267Z" transform="translate(330.389 161.536)" opacity="0.05"/>
      <path id="Path_26" data-name="Path 26" d="M408.568,219.636c.566,1.8,1.068,3.614,1.493,5.445a4.449,4.449,0,0,1,.149,1.948,17.1,17.1,0,0,0-.581,1.8c-.094.966.574,1.815.951,2.718.951,2.294-.063,4.879-1.061,7.15l-2.978,6.733-2.436,5.5c-.723,1.642-1.446,3.284-2.145,4.942a160.685,160.685,0,0,0-7.762,23.264,2.852,2.852,0,0,1-.4,1.013c-.417.55-1.163.707-1.768,1.045a3.292,3.292,0,0,0-.361,5.256c-.346,4.046,2.687,7.951,4.251,11.7,3.591,8.642,2.938,18.322,4.18,27.577l-1.4-.786c-1.344.613-1.3,2.514-2.011,3.795-1.084,1.933-3.732,2.208-5.94,2.058a4.634,4.634,0,0,1-1.988-.456,1.674,1.674,0,0,1-.888-1.7c2.082-9.428-4.714-19.053-9.381-27.5a18.312,18.312,0,0,0-2.6-3.8c-.786-.841-1.721-1.571-2.467-2.436-2.066-2.483-2.357-5.987-2.192-9.216a51.634,51.634,0,0,1,5.869-21.763c-.369-2.357.542-4.91.974-7.228a56.769,56.769,0,0,1,1.768-7.582c.464-1.391,1.029-2.75,1.375-4.172a2.845,2.845,0,0,0-.189-2.357,2.765,2.765,0,0,0-1.328-.856,29.563,29.563,0,0,0-6.411-1.414l-14.441-2.074a36.727,36.727,0,0,1-.613-9.255,14.228,14.228,0,0,1,10.214-11.911,2.145,2.145,0,0,1,1.878.118,75.291,75.291,0,0,1,38.239,2.443Z" transform="translate(330.008 154.257)" fill="#3f3d56"/>
      <path id="Path_27" data-name="Path 27" d="M386.99,182.807a7.072,7.072,0,0,0,.629,4.133,6.459,6.459,0,0,0,1.642,1.815,12.17,12.17,0,0,0,4.761,2.357,5.07,5.07,0,0,1,2.844,1.249c1.014,1.226.338,3.072-.526,4.408a11.272,11.272,0,0,1-6.238,5.162c-2.129.581-4.408.228-6.584.6-1.571.275-3.064.927-4.62,1.3a13.632,13.632,0,0,1-12.571-3.5c2.31-1.776,4.714-3.669,5.916-6.333a9,9,0,0,0,.448-6.05c-.558-1.972-1.807-3.928-1.414-5.908s2.357-3.394,4.329-4.078a27.767,27.767,0,0,1,5.445-1.1c1.013-.141,7.48-1.571,7.857-.864.228.4-1.116,2.758-1.281,3.276A12.607,12.607,0,0,0,386.99,182.807Z" transform="translate(338.466 112.996)" fill="#a1616a"/>
      <path id="Path_28" data-name="Path 28" d="M386.99,182.807a7.072,7.072,0,0,0,.629,4.133,6.459,6.459,0,0,0,1.642,1.815,12.17,12.17,0,0,0,4.761,2.357,5.07,5.07,0,0,1,2.844,1.249c1.014,1.226.338,3.072-.526,4.408a11.272,11.272,0,0,1-6.238,5.162c-2.129.581-4.408.228-6.584.6-1.571.275-3.064.927-4.62,1.3a13.632,13.632,0,0,1-12.571-3.5c2.31-1.776,4.714-3.669,5.916-6.333a9,9,0,0,0,.448-6.05c-.558-1.972-1.807-3.928-1.414-5.908s2.357-3.394,4.329-4.078a27.767,27.767,0,0,1,5.445-1.1c1.013-.141,7.48-1.571,7.857-.864.228.4-1.116,2.758-1.281,3.276A12.607,12.607,0,0,0,386.99,182.807Z" transform="translate(338.466 112.996)" opacity="0.05"/>
      <circle id="Ellipse_6" data-name="Ellipse 6" cx="13.113" cy="13.113" r="13.113" transform="translate(704.211 274.292)" fill="#a1616a"/>
      <path id="Path_29" data-name="Path 29" d="M392.925,188.038l-8.886,1.493a33.291,33.291,0,0,1-6.647.668,19.015,19.015,0,0,0-3.661,0c-.841.141-1.642.464-2.491.566-1.037.134-2.09-.063-3.143.071-1.933.244-3.52,1.571-4.989,2.86-1.721,1.493-3.567,3.245-3.693,5.5a1.571,1.571,0,0,0,.1.786,2.3,2.3,0,0,0,.66.691c1.634,1.336,2.553,3.339,3.716,5.107a19.726,19.726,0,0,0,4.415,4.761c.393-.251,1.131.409.959.833s-.589.731-.731,1.171c-.314,1.006.927,1.744,1.438,2.671s.259,2.09.314,3.143.526,2.3.684,3.481c.354,2.726-.99,5.6,0,8.187a2.569,2.569,0,0,0-2.553,1.988,7.5,7.5,0,0,0,.1,3.488,4.8,4.8,0,0,0-2.357,4.384.786.786,0,0,1-.566,1.045,4.423,4.423,0,0,0-2.726,4.109,2.019,2.019,0,0,1-.078.872,1.917,1.917,0,0,1-.644.66,5.123,5.123,0,0,0-1.909,4.007,2.938,2.938,0,0,0,1.351,2.624,24.45,24.45,0,0,0,5.971,1.776A53.656,53.656,0,0,0,373.346,256a51.862,51.862,0,0,0,5.413.165l11.9-.047c3.339,0,6.686,0,10.025-.251,3.143-.2,6.285-.6,9.31.22.377-.636-.228-1.375-.6-2.019a6.764,6.764,0,0,1-.684-2.8l-.746-7.928a13.927,13.927,0,0,1-.063-3.284c.165-1.171.605-2.278.833-3.433.432-2.223,0-4.518.141-6.78a30.248,30.248,0,0,1,1.037-5.9l2.357-9.7a37.466,37.466,0,0,1,1.163-4.863q2.711-6.992,5.7-13.859a1.43,1.43,0,0,0-.1-1.226l-1.964-3.528a22.533,22.533,0,0,0-1.8-2.868,11.353,11.353,0,0,0-6.639-4.078,11.739,11.739,0,0,0-7.715,1.147c-.919.487-1.768,1.092-2.7,1.571A11.056,11.056,0,0,1,392.925,188.038Z" transform="translate(331.321 121.044)" fill="#f86d70"/>
      <path id="Path_30" data-name="Path 30" d="M368.409,190.036l-3.1,4.133a5.264,5.264,0,0,0-.723,1.139c-.471,1.084-.212,2.357-.464,3.5a7.31,7.31,0,0,1-.9,2.1,48.394,48.394,0,0,1-3.928,5.861,10.5,10.5,0,0,1-2.443,2.42,4.054,4.054,0,0,1-3.3.581,2.066,2.066,0,0,1,1.084.982,11.99,11.99,0,0,1,.786,7.668,7.856,7.856,0,0,1-.864,2.514,3.771,3.771,0,0,1-1.972,1.7,2.907,2.907,0,0,0,3.425,2.459,5.727,5.727,0,0,0,1.7-.848l4.973-3.221A13.218,13.218,0,0,0,365,219.295c.927-.927,1.571-2.1,2.483-3.056,1.571-1.626,3.8-2.6,4.895-4.565a21.48,21.48,0,0,0,1.218-4.023c.275-.872.684-1.7.943-2.585a11.549,11.549,0,0,0-1.021-8.281C372.235,194.231,370.247,192.2,368.409,190.036Z" transform="translate(324.284 127.68)" fill="#f86d70"/>
      <path id="Path_31" data-name="Path 31" d="M366.838,178.32a17.191,17.191,0,0,1,4.612-4.8,15.74,15.74,0,0,1,8.32-3.52,8.846,8.846,0,0,1,3.74.613c.063-3.708.982-6.168,3.292-5.8,4.313.691,9.106,2.357,10.756,6.4,1.241,3.056.283,6.49,0,9.774a7.417,7.417,0,0,0,.094,2.6,9.122,9.122,0,0,0,2.278,3.575,19.045,19.045,0,0,1,3.284,4.6,6.694,6.694,0,0,1,.22,5.5,4,4,0,0,0-.542,1.446c-.055,1.124,1.116,1.831,1.98,2.546,3.237,2.679,3.1,7.558,3.143,11.785a59.493,59.493,0,0,0,5.625,24.859,7.6,7.6,0,0,1-8.5-1.108,28.627,28.627,0,0,0,1.933,5.563c-2.742,1.328-6.042-.856-7.409-3.567s-1.571-5.877-2.514-8.752-2.742-5.413-3.528-8.312a7.989,7.989,0,0,0-.982-2.781,7.072,7.072,0,0,0-1.729-1.469c-2.821-2.027,1.336-17.379.236-20.671-1.642.354-4.659-7.566-6.38-15.619a8.132,8.132,0,0,1-3.732.377,4.494,4.494,0,0,0-1.336-.094,3.55,3.55,0,0,0-1.163.471,28.7,28.7,0,0,1-3.968,2.043c-2.844,1.061-5.979.919-9,.786a8.926,8.926,0,0,1,1.273-6.435Z" transform="translate(337.53 101.613)" fill="#3a3768"/>
      <path id="Path_32" data-name="Path 32" d="M366.838,178.32a17.191,17.191,0,0,1,4.612-4.8,15.74,15.74,0,0,1,8.32-3.52,8.846,8.846,0,0,1,3.74.613c.063-3.708.982-6.168,3.292-5.8,4.313.691,9.106,2.357,10.756,6.4,1.241,3.056.283,6.49,0,9.774a7.417,7.417,0,0,0,.094,2.6,9.122,9.122,0,0,0,2.278,3.575,19.045,19.045,0,0,1,3.284,4.6,6.694,6.694,0,0,1,.22,5.5,4,4,0,0,0-.542,1.446c-.055,1.124,1.116,1.831,1.98,2.546,3.237,2.679,3.1,7.558,3.143,11.785a59.493,59.493,0,0,0,5.625,24.859,7.6,7.6,0,0,1-8.5-1.108,28.627,28.627,0,0,0,1.933,5.563c-2.742,1.328-6.042-.856-7.409-3.567s-1.571-5.877-2.514-8.752-2.742-5.413-3.528-8.312a7.989,7.989,0,0,0-.982-2.781,7.072,7.072,0,0,0-1.729-1.469c-2.821-2.027,1.336-17.379.236-20.671-1.642.354-4.659-7.566-6.38-15.619a8.132,8.132,0,0,1-3.732.377,4.494,4.494,0,0,0-1.336-.094,3.55,3.55,0,0,0-1.163.471,28.7,28.7,0,0,1-3.968,2.043c-2.844,1.061-5.979.919-9,.786a8.926,8.926,0,0,1,1.273-6.435Z" transform="translate(337.53 101.613)" fill="#3f3d56"/>
      <g id="Group_5" data-name="Group 5" transform="translate(705.468 266.365)" opacity="0.1">
        <path id="Path_33" data-name="Path 33" d="M401.785,237.879a59.617,59.617,0,0,1-5.625-24.859c0-4.2.118-9.082-3.143-11.785-.864-.715-2.035-1.422-1.988-2.546a4.014,4.014,0,0,1,.55-1.446,6.726,6.726,0,0,0-.22-5.5,19.048,19.048,0,0,0-3.284-4.6,9.139,9.139,0,0,1-2.286-3.575,7.811,7.811,0,0,1-.094-2.6c.322-3.284,1.289-6.718,0-9.774-1.571-3.928-6.136-5.594-10.339-6.325a2.357,2.357,0,0,1,1.131-.071c4.313.691,9.106,2.357,10.756,6.4,1.241,3.056.283,6.49,0,9.774a7.418,7.418,0,0,0,.094,2.6,9.122,9.122,0,0,0,2.278,3.575,19.045,19.045,0,0,1,3.284,4.6,6.694,6.694,0,0,1,.22,5.5,4,4,0,0,0-.542,1.446c-.055,1.124,1.116,1.831,1.98,2.546,3.237,2.679,3.1,7.558,3.143,11.785a59.49,59.49,0,0,0,5.625,24.859,7.346,7.346,0,0,1-4.164.786A7.11,7.11,0,0,0,401.785,237.879Z" transform="translate(-357.685 -164.765)"/>
        <path id="Path_34" data-name="Path 34" d="M386.115,205.763a28.118,28.118,0,0,1-1.933-5.563,7.175,7.175,0,0,0,1.862,1.234,29.239,29.239,0,0,0,1.571,4.329,4.117,4.117,0,0,1-2.538.322,3.993,3.993,0,0,0,1.037-.322Z" transform="translate(-348.575 -128.195)"/>
        <path id="Path_35" data-name="Path 35" d="M374.834,167.955a9.05,9.05,0,0,0-2.5-.589h.3a8.786,8.786,0,0,1,2.216.165C374.841,167.656,374.834,167.8,374.834,167.955Z" transform="translate(-360.801 -162.095)"/>
        <path id="Path_36" data-name="Path 36" d="M371.766,175.507a28.771,28.771,0,0,0,3.976-2.043,3.489,3.489,0,0,1,1.163-.471,4.289,4.289,0,0,1,1.226.071,4.917,4.917,0,0,0-.849.4,28.69,28.69,0,0,1-3.968,2.043,17.9,17.9,0,0,1-6.655.864A15.768,15.768,0,0,0,371.766,175.507Z" transform="translate(-366.659 -156.291)"/>
        <path id="Path_37" data-name="Path 37" d="M375.149,172.83l.071.354a7.7,7.7,0,0,1-1.948.055,8.643,8.643,0,0,0,1.878-.409Z" transform="translate(-359.836 -156.442)"/>
      </g>
      <path id="Path_38" data-name="Path 38" d="M392.1,226.72a4.793,4.793,0,0,0,1.289,3.834,8.538,8.538,0,0,0,1.823,1.344,4.949,4.949,0,0,0,2.169.786,4.094,4.094,0,0,0,2.773-1.21c2.286-2,3.426-4.973,4.478-7.818a58.658,58.658,0,0,0,3.386-11.557c.644-4.266.369-8.69,1.571-12.83-1.084-2.168-1.776-4.557-3.009-6.647a31.327,31.327,0,0,1-2.074-3.889,13.436,13.436,0,0,1-.369-8.972,1.21,1.21,0,0,0-1.43.071,3.008,3.008,0,0,0-.864,1.257,11.134,11.134,0,0,0-.856,5.272,2.1,2.1,0,0,1-.149,1.289,1.618,1.618,0,0,1-1.4.589,12.412,12.412,0,0,1-3.237-.581,30,30,0,0,0-9.97-.825,4.714,4.714,0,0,0-1.948.471,1.807,1.807,0,0,0-1,1.626l7.967,1.171a3.293,3.293,0,0,1,1.681.574,1.139,1.139,0,0,1,.228,1.571,3.142,3.142,0,0,1-.55.361,1.642,1.642,0,0,0,.063,2.624,1.681,1.681,0,0,1,.542.377c.33.44-.1,1.014-.244,1.571a1.949,1.949,0,0,0,.958,1.988,7.007,7.007,0,0,0,2.223.746,23.43,23.43,0,0,1,4.557,1.571,2.5,2.5,0,0,1,1.186.888,2.664,2.664,0,0,1-.141,2.231l-2.074,5.594c-.33.88-.652,1.752-1.061,2.6-.526,1.092-1.179,2.121-1.721,3.213a32.077,32.077,0,0,0-1.3,3.143C394.548,221.99,392.466,223.7,392.1,226.72Z" transform="translate(355.971 116.868)" fill="#a1616a"/>
      <path id="Path_39" data-name="Path 39" d="M268.654,96.34V359.865a87.29,87.29,0,0,0-27.208-4.2c-39.182,0-71,27.727-71,66.908s31.82,66.6,71,66.6,71.2-28.85,71.2-70.711v-183H519.278v124.4a87.25,87.25,0,0,0-27.208-4.2c-39.182,0-71,27.727-71,66.908s31.82,66.6,71,66.6,71.2-28.85,71.2-70.711V96.34Zm250.631,98.21H312.652V140.338H519.286Z" transform="translate(136.308 30.983)" fill="#6c63ff"/>
      <path id="Path_40" data-name="Path 40" d="M166.885,82.034V258.891a66.9,66.9,0,1,0,33.47,57.826V149.053h67.1V82.034Z" transform="translate(29.087 16.218)" fill="#6c63ff"/>
      <path id="Path_41" data-name="Path 41" d="M134.343,295.98a42.692,42.692,0,0,0-12.3-4.353,56.229,56.229,0,0,0,9.2-2.066c7.99-2.53,12.021-5.924,9-7.582s-11.958-.958-19.948,1.571a30.8,30.8,0,0,0-7.66,3.4c-.825-1.752-3.072-3.787-6.576-5.712-7.071-3.928-16.641-5.869-21.308-4.392s-2.695,5.83,4.408,9.735a42.526,42.526,0,0,0,11,4.093,64.689,64.689,0,0,0-7.582,1.343c-8.7,2.09-13.726,5.24-11.235,7.071s11.573,1.571,20.271-.5a37.883,37.883,0,0,0,9.114-3.221c.715,1.807,3,3.928,6.694,5.979,7.071,3.928,16.641,5.869,21.308,4.392S141.414,299.877,134.343,295.98Z" transform="translate(43.691 216.765)" fill="#6c63ff"/>
      <path id="Path_42" data-name="Path 42" d="M144.951,262.582a20.823,20.823,0,0,0-5.963-2.114,28.058,28.058,0,0,0,4.463-1c3.881-1.234,5.838-2.876,4.368-3.685s-5.806-.464-9.687.786a15.455,15.455,0,0,0-3.716,1.65,7.485,7.485,0,0,0-3.19-2.773c-3.449-1.893-8.085-2.844-10.347-2.129s-1.3,2.836,2.137,4.714a20.6,20.6,0,0,0,5.358,1.98,32.194,32.194,0,0,0-3.685.66c-4.219,1.006-6.663,2.538-5.453,3.418s5.618.786,9.837-.244a18.684,18.684,0,0,0,4.431-1.571,7.059,7.059,0,0,0,3.245,2.9c3.449,1.893,8.077,2.852,10.347,2.137S148.4,264.476,144.951,262.582Z" transform="translate(83.139 192.745)" fill="#6c63ff"/>
      <path id="Path_43" data-name="Path 43" d="M73.753,232.135A13.065,13.065,0,0,0,70,230.815a16.354,16.354,0,0,0,2.813-.629c2.428-.786,3.653-1.8,2.734-2.3s-3.63-.291-6.058.479a9.65,9.65,0,0,0-2.357,1.029,4.6,4.6,0,0,0-2-1.729c-2.153-1.186-5.052-1.783-6.474-1.336S57.874,228.1,60,229.283a12.794,12.794,0,0,0,3.355,1.241,19.363,19.363,0,0,0-2.31.417c-2.64.628-4.172,1.571-3.418,2.137s3.52.479,6.16-.149a11.737,11.737,0,0,0,2.773-.982,4.376,4.376,0,0,0,2.027,1.815c2.161,1.186,5.06,1.783,6.474,1.336S75.905,233.321,73.753,232.135Z" transform="translate(19.68 164.982)" fill="#6c63ff"/>
      <path id="Path_44" data-name="Path 44" d="M249.612,82.034v56.019h-67.1V305.717A66.995,66.995,0,0,1,73.942,358.271a67,67,0,0,0,119.572-41.555V149.053h67.1V82.034Z" transform="translate(36.713 16.218)" opacity="0.1"/>
      <path id="Path_45" data-name="Path 45" d="M67.226,94.237l.228,1.713L74.878,97s.6-.456,1.571-1.076a23.077,23.077,0,0,1,7.228-3.363c3.889-.786,16.256-6.325,12.272-6.686s-3.575.464-3.575.464-4.392-4.313-8.925-.369c-3.441,2.993-11,6.215-14.449,7.59C67.9,93.994,67.226,94.237,67.226,94.237Z" transform="translate(29.782 18.566)" fill="#efb7b9"/>
      <path id="Path_46" data-name="Path 46" d="M87.394,79.98a12.571,12.571,0,0,1,3.559-.911A4.329,4.329,0,0,1,94.339,80.2c.479.495.786,1.131,1.257,1.634,2.263,2.42,6.655.613,9.381,2.491,1.673,1.163,2.192,3.355,2.789,5.311s1.681,4.1,3.677,4.518a10.9,10.9,0,0,0,2.9-.11,2.852,2.852,0,0,1,2.608.959c.927,1.406-.354,3.756.99,4.761,1.2.888,3.378-.354,4.219.88a1.838,1.838,0,0,1-.291,2.043A14.194,14.194,0,0,0,120.5,104.4a2.593,2.593,0,0,0,2.553,3.787c.849-.086,1.752-.566,2.491-.149a1.76,1.76,0,0,1,.786,1.391,3.653,3.653,0,0,1-3.284,3.842c-1.446.094-2.773-.691-4.062-1.351s-2.8-1.218-4.141-.668a6.4,6.4,0,0,0-1.666,1.171,18.235,18.235,0,0,1-5.123,3.033c-1.634.644-3.536,1.029-5.107.228-1.768-.9-2.679-3.1-4.549-3.771s-4.007.581-5.8,1.642-4.188,1.948-5.806.644c-1.744-1.406-1.21-4.227-2.271-6.2a6.089,6.089,0,0,0-1.7-1.878c-1.194-.919-2.553-1.611-3.756-2.514a6.285,6.285,0,0,1-2.561-3.6c-.354-1.783.495-3.567,1.461-5.107s2.09-3.048,2.4-4.832c.236-1.336,0-2.726.306-4.046A4.989,4.989,0,0,1,83.913,82.6c.88-.3,1.037-.22,1.485-1A3.143,3.143,0,0,1,87.394,79.98Z" transform="translate(39.273 13.134)" fill="#3f3d56"/>
      <g id="Group_6" data-name="Group 6" transform="translate(115.705 108.679)" opacity="0.1">
        <path id="Path_47" data-name="Path 47" d="M96.5,87.165a6.686,6.686,0,0,1,.141,2.357,6.372,6.372,0,0,1-.141-2.357Z" transform="translate(-55.766 -87.165)"/>
        <path id="Path_48" data-name="Path 48" d="M98.361,93.536a2.569,2.569,0,0,0-.267.864,2.655,2.655,0,0,1,.094-2.2,13.978,13.978,0,0,1,1.367-1.7,2.9,2.9,0,0,0,.393-.786l.063.071a1.839,1.839,0,0,1-.283,2.035,14.044,14.044,0,0,0-1.367,1.721Z" transform="translate(-54.267 -84.54)"/>
        <path id="Path_49" data-name="Path 49" d="M78.9,92.184c1.2.911,2.553,1.571,3.748,2.522a5.986,5.986,0,0,1,1.7,1.878c1.061,1.972.526,4.793,2.271,6.2,1.618,1.3,4.023.424,5.814-.644s3.834-2.357,5.79-1.642,2.781,2.868,4.557,3.771c1.571.786,3.465.409,5.107-.228a18.307,18.307,0,0,0,5.115-3.033,6.757,6.757,0,0,1,1.666-1.179c1.343-.542,2.86,0,4.148.676a7.971,7.971,0,0,0,4.054,1.351,3.693,3.693,0,0,0,3.261-3.229,2.357,2.357,0,0,1,.173.691,3.646,3.646,0,0,1-3.261,3.866c-1.438.094-2.773-.691-4.054-1.344s-2.8-1.218-4.148-.676a6.939,6.939,0,0,0-1.666,1.171,18.33,18.33,0,0,1-5.115,3.041c-1.634.636-3.543,1.021-5.107.228-1.776-.9-2.679-3.1-4.557-3.771s-4.007.574-5.79,1.642-4.2,1.948-5.814.636c-1.744-1.406-1.21-4.219-2.271-6.2a6.05,6.05,0,0,0-1.7-1.87c-1.186-.919-2.546-1.611-3.748-2.522a6.285,6.285,0,0,1-2.569-3.6,4.25,4.25,0,0,1-.079-.943A6.568,6.568,0,0,0,78.9,92.184Z" transform="translate(-76.427 -85.294)"/>
      </g>
      <path id="Path_50" data-name="Path 50" d="M80.581,110.69l-2.695.574s2.656,4.368,6.749,1.5S80.581,110.69,80.581,110.69Z" transform="translate(40.783 45.688)" fill="#4c4981"/>
      <path id="Path_51" data-name="Path 51" d="M80.581,110.69l-2.695.574s2.656,4.368,6.749,1.5S80.581,110.69,80.581,110.69Z" transform="translate(40.783 45.688)" opacity="0.1"/>
      <path id="Path_52" data-name="Path 52" d="M108,133.82s3.74,1.933,7.22,4.172c2.5,1.571,4.863,3.355,5.633,4.667,1.854,3.143,10.866,6.553,10.866,6.553l8.941,6.8c2.106.7,4.156,3.261,5,4.408.251.346.4.566.4.566l3.583-.464,1.886-2.451s.479-5.405-3.245-5.343a5.122,5.122,0,0,1-2.1-.542c-4.007-1.768-9.609-7.346-9.609-7.346s-9.522-11.9-12.374-12.288a4.714,4.714,0,0,1-.9-.228c-2.9-1.014-7.071-4.753-7.071-4.753Z" transform="translate(71.86 63.216)" fill="#efb7b9"/>
      <path id="Path_53" data-name="Path 53" d="M89.916,154.614c.951,5.712,5.28,16.633,6.67,18.911,1.728,2.821,2.632,8.47,2.632,8.47l.511,3.928a4.557,4.557,0,0,0,.566,1.524,8.315,8.315,0,0,0,.5.786l7.173-2.208s-.416-1.65-1.045-3.543-1.571-4.274-2.467-5.154c-1.752-1.721-2.011-7.794-2.011-7.794s-1.461-11.675-1.909-13.144a20.271,20.271,0,0,1-.786-4.306c-.071-.786-.118-1.681-.126-2.695a55.074,55.074,0,0,0-1.131-8.642l-8.367,1.516-.22,9.357a6.238,6.238,0,0,0,.008,2.993Z" transform="translate(53.007 76.811)" fill="#efb7b9"/>
      <path id="Path_54" data-name="Path 54" d="M126.53,147.921c.251.346.4.566.4.566l3.583-.464,1.886-2.451s.479-5.405-3.245-5.343a5.121,5.121,0,0,1-2.1-.542c-.306,1.618,1.508,2.962,1.508,2.962s.786.55.574,3.088C129.02,147.465,127.488,147.835,126.53,147.921Z" transform="translate(90.985 75.718)" opacity="0.1"/>
      <path id="Path_55" data-name="Path 55" d="M126.336,151.938c.236.872,2.5,2.153,4.07,2.954.786.393,1.375.668,1.493.731.361.181,2.263-1.933,2.522-3.638s4.793-7.008,4.793-7.008a19.014,19.014,0,0,0,1.681-6.639c.173-2.318-.786-2.506-1.925-1.98a7.613,7.613,0,0,0-2.153,1.689,5.751,5.751,0,0,1-2.789,1.446,13.647,13.647,0,0,0-4.015,1.713c-1.1.707-2.168,1.571-2.357,2.357-.416,1.673,1.485,3.088,1.485,3.088s.786.55.574,3.088S126.313,151.859,126.336,151.938Z" transform="translate(90.786 72.031)" fill="#444053"/>
      <path id="Path_56" data-name="Path 56" d="M128.339,154.892c.786.393,1.375.668,1.493.731.361.181,2.263-1.933,2.522-3.638s4.793-7.008,4.793-7.008a19.014,19.014,0,0,0,1.681-6.639c.173-2.318-.786-2.506-1.925-1.98-.189,1.839-.652,5.413-1.571,7.275C134.184,145.849,129.588,152.967,128.339,154.892Z" transform="translate(92.853 72.031)" opacity="0.1"/>
      <path id="Path_57" data-name="Path 57" d="M95.139,166.156l-.071.134a8.3,8.3,0,0,0,.5.786l7.173-2.208s-.416-1.65-1.045-3.543c-2.836-.786-6.906,4.172-6.906,4.172Z" transform="translate(58.233 97.961)" opacity="0.1"/>
      <path id="Path_58" data-name="Path 58" d="M94.833,171.326s5.987,2.1,8.642,1.776c2.051-.244,2.137-1.194,2-3.143-.047-.629-.11-1.351-.149-2.184-.134-3.457-1.524-4.156-1.524-4.156-2.278-5.971-8.839,2.043-8.839,2.043l.338.66a7.228,7.228,0,0,0-.668,3.261,9.522,9.522,0,0,0,.2,1.744Z" transform="translate(58.059 98.134)" fill="#444053"/>
      <path id="Path_59" data-name="Path 59" d="M94.832,167.174s5.987,2.1,8.642,1.776c2.051-.244,2.137-1.194,2-3.143a6.34,6.34,0,0,1-4.879,1.4,19.2,19.2,0,0,1-5.963-1.776,9.522,9.522,0,0,0,.2,1.744Z" transform="translate(58.061 102.286)" opacity="0.1"/>
      <path id="Path_60" data-name="Path 60" d="M80.124,100.225l2.357,10.214.479,2.106,4.329.55,4.463.566,4.855-1.76s1.351-4.62.236-8.085a5.123,5.123,0,0,0-2.247-2.962,4.99,4.99,0,0,1-.935-.723,4.1,4.1,0,0,1-.786-1.124,4.643,4.643,0,0,1-.416-1.626,11.612,11.612,0,0,1,1.5-5.775s-10.292-3.512-9.491-1.241c.526,1.469-.927,4.031-2.011,5.649-.589.872-1.069,1.477-1.069,1.477Z" transform="translate(43.093 24.026)" fill="#efb7b9"/>
      <circle id="Ellipse_7" data-name="Ellipse 7" cx="8.941" cy="8.941" r="8.941" transform="translate(123.564 102.433)" opacity="0.1"/>
      <circle id="Ellipse_8" data-name="Ellipse 8" cx="8.941" cy="8.941" r="8.941" transform="translate(123.524 102.103)" fill="#efb7b9"/>
      <path id="Path_61" data-name="Path 61" d="M80.948,129.435a21.882,21.882,0,0,0,2.357,5.075l12.484,3.064,8.917-9.334v-.063c-.275-.872-3.677-11.879-1.218-14.59,2.577-2.821,1.571-10.779,1.571-10.779s-4.455-5.123-5.358-6.364-6.686-2.216-6.686-2.216c.291.393.558.786.786,1.124a11,11,0,0,1,1.422,3.017,4.51,4.51,0,0,1-.118,3.276,3.6,3.6,0,0,0-.306.841c-.974,4.266-5.421,3.669-7.189,3.245-.456-.11-.739-.2-.739-.2l-4.251.134-2.671.086s1.218,21.04.927,22.714a2.687,2.687,0,0,0,.071.974Z" transform="translate(42.914 28.804)" fill="#f86d70"/>
      <path id="Path_62" data-name="Path 62" d="M80.013,101.05l7.739-1.014h-.141c-.456-.11-.731-.2-.731-.2l-4.258.134-2.663.086S79.974,100.4,80.013,101.05Z" transform="translate(42.922 34.586)" fill="#925978"/>
      <path id="Path_63" data-name="Path 63" d="M64.771,81.7l3.355.817,5.288-.691,1.375-1.438Z" transform="translate(66.846 82.959)" fill="#925978"/>
      <path id="Path_64" data-name="Path 64" d="M67.52,81.849l1.516.369.621-.652Z" transform="translate(69.683 84.176)" fill="#925978"/>
      <path id="Path_65" data-name="Path 65" d="M80.94,130.964c2,.2,3.834.306,3.834.306l10.285-.385v-10.74a15.234,15.234,0,0,0-4.148-2.734c-1.791-.621-3.928-2.522-3.5-7.535a7.184,7.184,0,0,1,.086-.9,11.531,11.531,0,0,0,.094-1.689,9.035,9.035,0,0,0-2.852-6.615,1.36,1.36,0,0,0-.149-.134l-1.673-7.794a1.667,1.667,0,0,0-.338.047c-.589.872-1.069,1.477-1.069,1.477l-1.234,2.7,2.357,10.214-2.671.086s1.218,21.04.927,22.714A2.686,2.686,0,0,0,80.94,130.964Z" transform="translate(42.922 27.275)" opacity="0.1"/>
      <path id="Path_66" data-name="Path 66" d="M89.887,131.329l10.285-.377V120.2a15.328,15.328,0,0,0-4.141-2.734c-1.893-.66-4.148-2.734-3.418-8.43a9.326,9.326,0,0,0-2.734-8.352l-.157-.134L88.049,92.76A3.622,3.622,0,0,0,85.4,94.276a6.639,6.639,0,0,1-.621.911,1.571,1.571,0,0,1-2.066.613c-1.084-.479-5.751-2.451-6.8-.519s-1.241,13.443-1.241,13.443A8.792,8.792,0,0,1,77.7,113.7c.715,3.292,1.909,3.371,1.909,3.371L80.9,126.5s1.171,2.051.3,3.182" transform="translate(37.471 27.287)" fill="#444053"/>
      <path id="Path_67" data-name="Path 67" d="M79.649,95.168l1.752,5.248,3.347.291-.157-.134-1.673-7.794A3.622,3.622,0,0,0,80.27,94.3a6.64,6.64,0,0,1-.621.872Z" transform="translate(42.603 27.307)" fill="#444053"/>
      <path id="Path_68" data-name="Path 68" d="M67.226,89.53l.228,1.713L74.878,92.3s.6-.456,1.571-1.076c-.786-.181-4.478-.982-6.411-1.571-.715-.22-1.186-.409-1.2-.534s.047-.149.165-.244C67.9,89.287,67.226,89.53,67.226,89.53Z" transform="translate(29.782 23.273)" opacity="0.1"/>
      <path id="Path_69" data-name="Path 69" d="M63.966,101.817S72.38,108.2,77.6,109.233c0,0,7.338,2.168,10.214,4.714l3.143-12.115L89.029,100.5s-2.3,1.422-4.282.951-4.172-.786-4.172-.786a32.26,32.26,0,0,0-5.335-1.461c-1.414-.118-.841-1.956.574-2.931a3.072,3.072,0,0,1,.589-.33,1.823,1.823,0,0,0,2.357.534,5.382,5.382,0,0,0,1.383-1.289h0a17.94,17.94,0,0,0,1.571-2.357s-4.392-.943-6.576-1.618c-.715-.22-1.186-.409-1.2-.534-.063-.5,3.928-2.09,3.928-2.09s-3.41-1.65-4.793-.448c0,0,.9.668.173,1.328s-9.428,7.362-9.428,7.362S59.519,98.949,63.966,101.817Z" transform="translate(24.337 22.073)" fill="#444053"/>
      <path id="Path_70" data-name="Path 70" d="M66.5,93.643l4.659.668a3.073,3.073,0,0,1,.589-.33,1.823,1.823,0,0,0,2.357.534,5.381,5.381,0,0,0,1.383-1.289h0a18.418,18.418,0,0,0,1.273-1.988s-4.392-.943-6.576-1.618Z" transform="translate(29.036 24.047)" opacity="0.1"/>
      <path id="Path_71" data-name="Path 71" d="M66.634,93.461l4.958.715a1.823,1.823,0,0,0,2.357.534c1.422-.786,2.954-3.661,2.954-3.661s-4.392-.943-6.576-1.618Z" transform="translate(29.171 23.852)" fill="#444053"/>
      <path id="Path_72" data-name="Path 72" d="M116.255,127.593,108,133.839s3.74,1.933,7.22,4.172c3.041-2.058,5.908-3.928,8.085-5.665C120.4,131.293,116.255,127.593,116.255,127.593Z" transform="translate(71.86 63.236)" opacity="0.1"/>
      <path id="Path_73" data-name="Path 73" d="M89.916,154.614a27.979,27.979,0,0,0,6.05-1.446s1.524-.33,3.787-1.084c-.071-.786-.118-1.681-.126-2.695a55.07,55.07,0,0,0-1.131-8.642l-8.367,1.516-.22,9.357A6.238,6.238,0,0,0,89.916,154.614Z" transform="translate(53.007 76.811)" opacity="0.1"/>
      <path id="Path_74" data-name="Path 74" d="M85.016,148.449C86.7,150.939,91.3,161.53,91.3,161.53a45.047,45.047,0,0,0,3.5,5.4c1.831,2.3,3.1,7.48,4.486,11.62s-.409,3.363-.212,5.5,8.061-.629,8.061-.629,16.067-3.536,20.978-13.357,24.521-18.715,28.489-24.238-1.124-3.245-.927-6.238a8.465,8.465,0,0,0-2.066-5.5s-7.4-2.09-8.6-3.543-7.11-5.091-7.11-5.091-5.57-2.412-6.285-3.253-7.315-3.449-9.334-3.928-4-3.378-4-3.378-1.249.165-3.1-1.626-9.593-3.331-9.593-3.331c-13.223,9.742-22.36,8.383-22.36,8.383l-.212,1.838C75.988,129.317,83.335,145.958,85.016,148.449Z" transform="translate(42.995 45.012)" fill="#444053"/>
      <path id="Path_75" data-name="Path 75" d="M81.5,120.117s11.432,3.763,22.58-10.159c-13.231,9.7-22.368,8.336-22.368,8.336Z" transform="translate(44.514 45.036)" opacity="0.1"/>
      <path id="Path_76" data-name="Path 76" d="M91.182,118.156s15.352,22.164,16.3,22.973S91.992,117.881,91.182,118.156Z" transform="translate(54.506 53.495)" opacity="0.1"/>
      <path id="Path_77" data-name="Path 77" d="M87.691,117.32s10.63,16.5,10.418,18.731C98.109,136.05,87.848,120.187,87.691,117.32Z" transform="translate(50.903 52.634)" opacity="0.1"/>
      <path id="Path_78" data-name="Path 78" d="M85.147,119.551s1.964,9.232-.99,14.464Z" transform="translate(47.255 54.936)" opacity="0.1"/>
      <path id="Path_79" data-name="Path 79" d="M83.152,119.814s-.126,7.99-1.021,9.632Z" transform="translate(45.164 55.208)" opacity="0.1"/>
      <path id="Path_80" data-name="Path 80" d="M75.96,82.626l14.119,5.531-5.17.676Z" transform="translate(78.394 85.269)" opacity="0.1"/>
      <path id="Path_81" data-name="Path 81" d="M83.252,88.662c.707.471,1.3,1.218,2.137,1.328a3.363,3.363,0,0,0,1.736-.424,6.386,6.386,0,0,1,4.455-.6c2.074.684,3.213,3.072,5.28,3.779a3.763,3.763,0,0,0,1.98.11,3.834,3.834,0,0,0,1.116-.456,3.591,3.591,0,0,0,1.571-2.231,4.62,4.62,0,0,0-1.571-4.353,9.64,9.64,0,0,0-4.392-2c-4.148-.919-8.462-.613-12.7-.291a1.847,1.847,0,0,0-.99.259c-.644.479-1.744,2.891-1.516,3.708C80.675,88.552,83.134,87.766,83.252,88.662Z" transform="translate(43.305 17.424)" opacity="0.1"/>
      <path id="Path_82" data-name="Path 82" d="M83.232,88.5c.707.464,1.289,1.218,2.137,1.328A3.323,3.323,0,0,0,87.1,89.4a6.392,6.392,0,0,1,4.455-.6c2.074.691,3.213,3.08,5.28,3.779a3.693,3.693,0,0,0,1.98.11,3.614,3.614,0,0,0,1.116-.448A3.677,3.677,0,0,0,101.546,90a4.643,4.643,0,0,0-1.611-4.361,9.671,9.671,0,0,0-4.392-1.988c-4.148-.927-8.454-.613-12.7-.3a1.87,1.87,0,0,0-.99.267c-.636.471-1.744,2.891-1.516,3.708C80.655,88.423,83.114,87.59,83.232,88.5Z" transform="translate(43.286 17.255)" fill="#3f3d56"/>
      <path id="Path_83" data-name="Path 83" d="M108.647,94.034,110,99.494l1.752-1.061,9.522-5.743s7.213-.267,7.77-6.065-8.014-.055-8.47.385-1.493,1.218-1.493,1.218l-8.862,4.95Z" transform="translate(72.53 18.298)" fill="#efb7b9"/>
      <path id="Path_84" data-name="Path 84" d="M108.647,89.4,110,94.863l1.752-1.061c-.385-2.467-.99-4.714-1.571-5.264Z" transform="translate(72.53 22.93)" opacity="0.1"/>
      <path id="Path_85" data-name="Path 85" d="M85.518,120.024l1.941,11.392,11.487-2.381c-.275-.872-3.677-11.879-1.218-14.59,2.577-2.821,1.571-10.779,1.571-10.779s-4.455-5.123-5.358-6.364-6.686-2.216-6.686-2.216a4.643,4.643,0,0,1-.416-1.626,6.535,6.535,0,0,0-.44,1.218,4.589,4.589,0,0,0,3.064,4.549c.2.094.4.181.621.267.346.141.731.275,1.139.4l.189.055c3.7,1.1,4.5,3.316,4.5,3.316a8.477,8.477,0,0,1,1.681,5.971C97.233,112.732,85.518,120.024,85.518,120.024Z" transform="translate(48.66 28.01)" opacity="0.1"/>
      <path id="Path_86" data-name="Path 86" d="M85.835,125.057l1.941,11.384,12.987-2.7s-.393-4.3-1.3-6.042-.723-8.556-.723-8.556c5.5-5.924,2.608-10.74,2.608-10.74s16.161-2.624,16.436-3.143,5.665-3.394,5.665-3.394,5.853-1.5,6.647-2.357a7.072,7.072,0,0,1,.959-.872,2.521,2.521,0,0,1,.314-.2l.432,3.732h.2a5.319,5.319,0,0,0,2.546-1.006c1.336-1.021-.354-12.217-1.65-12.61a1.493,1.493,0,0,0-.746,0,8.438,8.438,0,0,0-2.789,1.509l-.228.181-.079.071s-7.315,2.868-8.776,4.188-12.838,2.993-12.838,2.993-5.1,1.21-5.759.479-8.446-1.925-9.1-.786-2.459.935-2.459.935c-1.281-1.477-2.168-.9-2.711-.055a5.932,5.932,0,0,0-.691,1.642c0,2.263,1,3.748,3.685,4.816.409.157.849.314,1.328.456,3.708,1.1,4.5,3.316,4.5,3.316a8.462,8.462,0,0,1,1.689,5.971C97.573,117.766,85.835,125.057,85.835,125.057Z" transform="translate(48.987 22.89)" fill="#444053"/>
      <path id="Path_87" data-name="Path 87" d="M110.172,88.543a1.209,1.209,0,0,1,.416.047c1.3.393,2.978,11.6,1.642,12.618a5.264,5.264,0,0,1-2.271.982h-.2l-.432-3.732a2.523,2.523,0,0,0-.314.2v-.157a9.7,9.7,0,0,0-1.846-8.289Z" transform="translate(71.006 22.933)" opacity="0.1"/>
      <path id="Path_88" data-name="Path 88" d="M109.235,98.486l.432,3.732a5.225,5.225,0,0,0,2.773-1.061c1.336-1.021-.354-12.217-1.65-12.61-1.021-.314-2.821.959-3.536,1.5a9.711,9.711,0,0,1,1.98,8.438Z" transform="translate(71.094 22.889)" fill="#444053"/>
      <path id="Path_89" data-name="Path 89" d="M89.972,99.651l1.862-1.744-4.855-4.714a5.933,5.933,0,0,0-.691,1.642C86.3,97.1,87.285,98.583,89.972,99.651Z" transform="translate(49.454 27.734)" fill="#444053"/>
      <path id="Path_90" data-name="Path 90" d="M83.139,85.909c.707.464,1.289,1.218,2.137,1.328A3.324,3.324,0,0,0,87,86.8a6.392,6.392,0,0,1,4.455-.6c2.074.691,3.213,3.08,5.28,3.779a3.693,3.693,0,0,0,1.98.11,3.558,3.558,0,0,0,2.821-3.677,3.724,3.724,0,0,1,0,1.666,3.645,3.645,0,0,1-1.618,2.231,3.535,3.535,0,0,1-1.116.448,3.661,3.661,0,0,1-1.972-.11c-2.074-.7-3.213-3.088-5.288-3.779a6.435,6.435,0,0,0-4.455.6,3.324,3.324,0,0,1-1.728.432c-.841-.11-1.43-.864-2.137-1.328-.118-.911-2.577-.079-2.883-1.171a1.3,1.3,0,0,1,0-.5C80.829,85.744,83.021,85.053,83.139,85.909Z" transform="translate(43.293 19.179)" opacity="0.1"/>
      <path id="Path_91" data-name="Path 91" d="M86.458,98.053s-1.029,2.891.283,3.866c0,0-1.438-3.826-2.271-3.74" transform="translate(47.579 32.75)" opacity="0.1"/>
      <path id="Path_92" data-name="Path 92" d="M118.76,84.2s-6.639,5.743-1.838,6.67S118.76,84.2,118.76,84.2Z" transform="translate(79.27 18.449)" fill="#efb7b9"/>
      <g id="Group_7" data-name="Group 7" transform="translate(340.199 127.323)" opacity="0.1">
        <path id="Path_93" data-name="Path 93" d="M492.093,162.487H285.46V345.5c0,41.845-32.016,70.711-71.2,70.711a78.671,78.671,0,0,1-27.357-4.8,76.635,76.635,0,0,0,37.571,9.515c39.182,0,71.2-28.85,71.2-70.711V167.2H492.093Z" transform="translate(-186.904 -28.074)"/>
        <path id="Path_94" data-name="Path 94" d="M215.91,136.2h10.214V86.7H422.559V81.984H215.91Z" transform="translate(-117.371 -42.716)"/>
        <path id="Path_95" data-name="Path 95" d="M408.8,96.34V413.754c0,41.845-32.016,70.711-71.2,70.711a78.67,78.67,0,0,1-27.357-4.8,76.635,76.635,0,0,0,37.571,9.514c39.182,0,71.2-28.85,71.2-70.711V96.34Z" transform="translate(-59.617 -96.34)"/>
      </g>
      <path id="Path_96" data-name="Path 96" d="M244.856,75.4c5.068,10.473,13.357,22.384,22.73,17.835S283.959,69.386,278.892,58.9s-16.806-15.258-26.2-10.709S239.781,64.939,244.856,75.4Z" transform="translate(210.704 -20.489)" fill="#6c63ff"/>
      <path id="Path_97" data-name="Path 97" d="M255.985,76.251s1.831-.306,1.131-1.815a2.8,2.8,0,0,0-.22-.385,4.847,4.847,0,0,1-.7-1.948,7.068,7.068,0,0,1,.086-2.428l-4.989-.33s1.941,1.65,1.713,2.514a.5.5,0,0,1-.228.3.786.786,0,0,1-.33.141l-.377.11c-1.312.464-.786,1.124-.786,1.124C251.46,75.685,255.985,76.251,255.985,76.251Z" transform="translate(219.633 3.122)" fill="#6c63ff"/>
      <path id="Path_98" data-name="Path 98" d="M251.969,70.881l3.52.487a4.383,4.383,0,0,1-.1-.542c-.9-.039-2.3-.157-3.19-.244a.5.5,0,0,1-.228.3Z" transform="translate(220.444 4.399)" fill="#444053"/>
      <path id="Path_99" data-name="Path 99" d="M255.985,74.695s1.831-.306,1.131-1.815a5.657,5.657,0,0,1-2.161.086,4.785,4.785,0,0,1-2.883-2.113c-1.312.464-.786,1.123-.786,1.123C251.46,74.129,255.985,74.695,255.985,74.695Z" transform="translate(219.633 4.678)" fill="#6c63ff"/>
      <path id="Path_100" data-name="Path 100" d="M255.985,74.695s1.831-.306,1.131-1.815a5.657,5.657,0,0,1-2.161.086,4.785,4.785,0,0,1-2.883-2.113c-1.312.464-.786,1.123-.786,1.123C251.46,74.129,255.985,74.695,255.985,74.695Z" transform="translate(219.633 4.678)" opacity="0.1"/>
      <path id="Path_101" data-name="Path 101" d="M252.236,47.879s5.578-.676,7.158,3.041a4.486,4.486,0,0,0-2,.118,2.844,2.844,0,0,1-1.3.251,7.48,7.48,0,0,0-3.85-3.41Z" transform="translate(220.719 -19.081)" fill="#fff" opacity="0.1"/>
      <path id="Path_102" data-name="Path 102" d="M256.278,88.655a1.969,1.969,0,0,0,.314-.314,4.25,4.25,0,0,1,1.194-.943,4.184,4.184,0,0,1,.495-.251,7.283,7.283,0,0,1,1.571-.471,6.289,6.289,0,0,1,.786-.086l-.707-3.378v-.047l-.306-1.469a10.659,10.659,0,0,1-.707,1.234c-.361.55-.786,1.076-1.257,1.084a.558.558,0,0,1-.354-.134,1.068,1.068,0,0,1-.22-.283c-.079-.126-.141-.236-.212-.338-.786-1.131-1.281-.424-1.281-.424-.9.322-1.265,1.391-1.4,2.467a1.525,1.525,0,0,1-.047.464,12.349,12.349,0,0,0,.079,2.286S255.036,89.74,256.278,88.655Z" transform="translate(222.671 15.867)" fill="#6c63ff"/>
      <path id="Path_103" data-name="Path 103" d="M256.182,86.289a4.187,4.187,0,0,1,.495-.251c-.173-.731-.385-1.831-.534-2.695v-.181a.537.537,0,0,0-.047-.259.558.558,0,0,1-.354-.134l.079.526v.212Z" transform="translate(224.338 16.976)" fill="#444053"/>
      <path id="Path_104" data-name="Path 104" d="M256.278,88.188a5.666,5.666,0,0,1-.66-2.058,4.462,4.462,0,0,1,.149-1.3c.039-.126.071-.251.118-.369a3.827,3.827,0,0,1,.99-1.666c-.786-1.131-1.281-.424-1.281-.424-.9.322-1.265,1.391-1.4,2.467a1.525,1.525,0,0,1-.047.464,12.344,12.344,0,0,0,.079,2.286S255.036,89.272,256.278,88.188Z" transform="translate(222.672 16.335)" fill="#6c63ff"/>
      <path id="Path_105" data-name="Path 105" d="M256.278,88.188a5.666,5.666,0,0,1-.66-2.058,4.462,4.462,0,0,1,.149-1.3c.039-.126.071-.251.118-.369a3.827,3.827,0,0,1,.99-1.666c-.786-1.131-1.281-.424-1.281-.424-.9.322-1.265,1.391-1.4,2.467a1.525,1.525,0,0,1-.047.464,12.344,12.344,0,0,0,.079,2.286S255.036,89.272,256.278,88.188Z" transform="translate(222.672 16.335)" opacity="0.1"/>
      <path id="Path_106" data-name="Path 106" d="M243.67,87.231A57.56,57.56,0,0,0,257.459,94c3.575,1.084,7,1.43,9.868.519a9.043,9.043,0,0,0,3.347-1.933,9.546,9.546,0,0,0,1.689-2.011c3.323-5.193,3.26-14.323.628-22.227-1.839-5.5-4.887-10.371-8.9-12.948-9.79-6.285-22.3-4.243-27.939,4.549S233.881,80.945,243.67,87.231Z" transform="translate(201.298 -15.039)" fill="#6c63ff"/>
      <path id="Path_107" data-name="Path 107" d="M243.67,87.231A57.56,57.56,0,0,0,257.459,94c3.575,1.084,7,1.43,9.868.519a9.043,9.043,0,0,0,3.347-1.933,9.546,9.546,0,0,0,1.689-2.011c3.323-5.193,3.26-14.323.628-22.227-1.839-5.5-4.887-10.371-8.9-12.948-9.79-6.285-22.3-4.243-27.939,4.549S233.881,80.945,243.67,87.231Z" transform="translate(201.298 -15.039)" opacity="0.1"/>
      <path id="Path_108" data-name="Path 108" d="M251.644,77.383c1.249,1.744,5.39-.126,5.39-.126s1.406-1.21,0-2.129a3.342,3.342,0,0,0-.385-.22,4.385,4.385,0,0,1-1.249-.888c-.126-.126-.251-.259-.369-.4a7.353,7.353,0,0,1-.88-1.391,5.82,5.82,0,0,1-.307-.731l-4.431,2.357a10.047,10.047,0,0,1,1.391.338c.636.2,1.265.5,1.383.911a.5.5,0,0,1,0,.377.936.936,0,0,1-.212.291,3.854,3.854,0,0,0-.259.291C250.819,77.108,251.644,77.383,251.644,77.383Z" transform="translate(217.806 5.345)" fill="#6c63ff"/>
      <path id="Path_109" data-name="Path 109" d="M250.77,74.392l3.245-1.43c-.126-.126-.251-.259-.369-.4-.786.424-2.035,1.061-2.844,1.454a.5.5,0,0,1-.031.377Z" transform="translate(219.207 6.442)" fill="#444053"/>
      <path id="Path_110" data-name="Path 110" d="M250.691,75.54c1.249,1.744,5.39-.126,5.39-.126s1.406-1.21,0-2.129a5.428,5.428,0,0,1-1.8,1.194,4.785,4.785,0,0,1-3.551-.291C249.867,75.265,250.691,75.54,250.691,75.54Z" transform="translate(218.759 7.188)" fill="#6c63ff"/>
      <path id="Path_111" data-name="Path 111" d="M250.691,75.54c1.249,1.744,5.39-.126,5.39-.126s1.406-1.21,0-2.129a5.428,5.428,0,0,1-1.8,1.194,4.785,4.785,0,0,1-3.551-.291C249.867,75.265,250.691,75.54,250.691,75.54Z" transform="translate(218.759 7.188)" opacity="0.1"/>
      <path id="Path_112" data-name="Path 112" d="M239.055,54.78s4.408-3.481,7.692-1.139a4.526,4.526,0,0,0-1.642,1.147,2.853,2.853,0,0,1-.99.9A7.488,7.488,0,0,0,239.055,54.78Z" transform="translate(207.116 -13.921)" fill="#fff" opacity="0.1"/>
      <g id="Group_8" data-name="Group 8" transform="translate(486.988 72.616)" opacity="0.1">
        <path id="Path_113" data-name="Path 113" d="M263.24,74.313l-1.021-4.895a9.424,9.424,0,0,1-.707,1.234,8.848,8.848,0,0,0,.943,3.756,5.5,5.5,0,0,1,.786-.094Z" transform="translate(-256.697 -69.418)"/>
        <path id="Path_114" data-name="Path 114" d="M261.316,76.387a2.351,2.351,0,0,0,.314-.314,4.392,4.392,0,0,1,1.194-.951,4.19,4.19,0,0,1,.5-.251,6.734,6.734,0,0,1,1.571-.464,5.5,5.5,0,0,1,.786-.094l-1.021-4.895a9.431,9.431,0,0,1-.707,1.234c-.361.55-.825,1.084-1.257,1.092a.574.574,0,0,1-.346-.141.966.966,0,0,1-.244-.251c-.071-.126-.141-.236-.2-.338-.786-1.131-1.289-.416-1.289-.416-2.019.731-1.367,5.217-1.367,5.217S260.052,77.464,261.316,76.387Z" transform="translate(-259.142 -69.418)"/>
        <path id="Path_115" data-name="Path 115" d="M261.194,74.021a4.189,4.189,0,0,1,.495-.251c-.2-.856-.456-2.247-.621-3.143a.573.573,0,0,1-.346-.141Z" transform="translate(-257.511 -68.317)"/>
        <path id="Path_116" data-name="Path 116" d="M261.3,75.918a5.759,5.759,0,0,1-.66-2.066,4.824,4.824,0,0,1,1.265-3.339c-.786-1.131-1.289-.416-1.289-.416-2.019.731-1.367,5.217-1.367,5.217S260.04,76.994,261.3,75.918Z" transform="translate(-259.13 -68.949)"/>
        <path id="Path_117" data-name="Path 117" d="M261.3,75.918a5.759,5.759,0,0,1-.66-2.066,4.824,4.824,0,0,1,1.265-3.339c-.786-1.131-1.289-.416-1.289-.416-2.019.731-1.367,5.217-1.367,5.217S260.04,76.994,261.3,75.918Z" transform="translate(-259.13 -68.949)" opacity="0.1"/>
      </g>
      <path id="Path_118" data-name="Path 118" d="M260.991,75.9a1.973,1.973,0,0,0,.314-.314,4.392,4.392,0,0,1,1.194-.943,4.185,4.185,0,0,1,.495-.251,6.734,6.734,0,0,1,1.571-.464,5.5,5.5,0,0,1,.786-.094l-1.021-4.895a10,10,0,0,1-.707,1.234c-.362.55-.786,1.084-1.257,1.084a.518.518,0,0,1-.346-.134,1.085,1.085,0,0,1-.228-.283c-.071-.126-.141-.236-.2-.338-.786-1.131-1.289-.424-1.289-.424-2.019.739-1.367,5.225-1.367,5.225S259.726,76.988,260.991,75.9Z" transform="translate(227.527 2.707)" fill="#6c63ff"/>
      <path id="Path_119" data-name="Path 119" d="M260.877,73.541a4.192,4.192,0,0,1,.495-.251c-.2-.856-.456-2.247-.621-3.143a.518.518,0,0,1-.346-.134Z" transform="translate(229.151 3.812)" fill="#444053"/>
      <path id="Path_120" data-name="Path 120" d="M260.968,75.436a5.664,5.664,0,0,1-.66-2.058,4.824,4.824,0,0,1,1.3-3.339c-.786-1.131-1.289-.424-1.289-.424-2.019.739-1.367,5.225-1.367,5.225S259.7,76.52,260.968,75.436Z" transform="translate(227.551 3.175)" fill="#6c63ff"/>
      <path id="Path_121" data-name="Path 121" d="M260.968,75.436a5.664,5.664,0,0,1-.66-2.058,4.824,4.824,0,0,1,1.3-3.339c-.786-1.131-1.289-.424-1.289-.424-2.019.739-1.367,5.225-1.367,5.225S259.7,76.52,260.968,75.436Z" transform="translate(227.551 3.175)" opacity="0.1"/>
      <g id="Group_9" data-name="Group 9" transform="translate(482.433 63.054)" opacity="0.1">
        <path id="Path_122" data-name="Path 122" d="M258.211,65.993a8.965,8.965,0,0,0,3.63,1.344,6.585,6.585,0,0,1,.361-.707l-4.62-1.917a9.419,9.419,0,0,1,.629,1.281Z" transform="translate(-256.195 -64.713)"/>
        <path id="Path_123" data-name="Path 123" d="M260.481,72.766s1.831.306,1.658-1.351a2.54,2.54,0,0,0-.086-.44,4.344,4.344,0,0,1-.11-1.516,4.208,4.208,0,0,1,.079-.55,7.566,7.566,0,0,1,.864-2.271l-4.62-1.917a9.433,9.433,0,0,1,.644,1.265c.251.613.424,1.3.189,1.65a.542.542,0,0,1-.314.212.833.833,0,0,1-.354,0h-.4c-1.383,0-1.068.786-1.068.786C256.388,70.778,260.481,72.766,260.481,72.766Z" transform="translate(-256.893 -64.705)"/>
        <path id="Path_124" data-name="Path 124" d="M257.815,66.387l3.143,1.571a4.187,4.187,0,0,1,.079-.55c-.833-.322-2.121-.9-2.938-1.257A.542.542,0,0,1,257.815,66.387Z" transform="translate(-255.955 -63.228)"/>
        <path id="Path_125" data-name="Path 125" d="M260.488,71.166s1.831.306,1.658-1.351a5.656,5.656,0,0,1-2.074-.613,4.84,4.84,0,0,1-2.051-2.931c-1.383,0-1.068.786-1.068.786C256.394,69.178,260.488,71.166,260.488,71.166Z" transform="translate(-256.9 -63.105)"/>
        <path id="Path_126" data-name="Path 126" d="M260.488,71.166s1.831.306,1.658-1.351a5.656,5.656,0,0,1-2.074-.613,4.84,4.84,0,0,1-2.051-2.931c-1.383,0-1.068.786-1.068.786C256.394,69.178,260.488,71.166,260.488,71.166Z" transform="translate(-256.9 -63.105)" opacity="0.1"/>
      </g>
      <path id="Path_127" data-name="Path 127" d="M260.32,72.526s1.831.306,1.658-1.344a2.41,2.41,0,0,0-.086-.44,4.392,4.392,0,0,1-.11-1.524,4.1,4.1,0,0,1,.079-.542,6.413,6.413,0,0,1,.5-1.571,6.577,6.577,0,0,1,.361-.707l-4.62-1.925a9.44,9.44,0,0,1,.628,1.281c.251.621.424,1.3.189,1.658a.566.566,0,0,1-.314.2.966.966,0,0,1-.354,0h-.4c-1.383,0-1.069.786-1.069.786C256.242,70.546,260.32,72.526,260.32,72.526Z" transform="translate(225.362 -1.906)" fill="#6c63ff"/>
      <path id="Path_128" data-name="Path 128" d="M257.656,66.143l3.143,1.571a4.089,4.089,0,0,1,.079-.542c-.833-.322-2.121-.9-2.938-1.257A.566.566,0,0,1,257.656,66.143Z" transform="translate(226.313 -0.417)" fill="#444053"/>
      <path id="Path_129" data-name="Path 129" d="M260.32,70.918s1.831.306,1.658-1.344a5.845,5.845,0,0,1-2.074-.621,4.824,4.824,0,0,1-2.051-2.923c-1.383,0-1.069.786-1.069.786C256.242,68.938,260.32,70.918,260.32,70.918Z" transform="translate(225.362 -0.298)" fill="#6c63ff"/>
      <path id="Path_130" data-name="Path 130" d="M260.32,70.918s1.831.306,1.658-1.344a5.845,5.845,0,0,1-2.074-.621,4.824,4.824,0,0,1-2.051-2.923c-1.383,0-1.069.786-1.069.786C256.242,68.938,260.32,70.918,260.32,70.918Z" transform="translate(225.362 -0.298)" opacity="0.1"/>
      <path id="Path_131" data-name="Path 131" d="M250.062,82.73a9.752,9.752,0,0,1,.715-1.226c.377-.55.841-1.076,1.265-1.076a.5.5,0,0,1,.354.141,1.02,1.02,0,0,1,.22.275c.071.134.141.244.2.346.786,1.147,1.289.432,1.289.432,2.027-.707,1.414-5.209,1.414-5.209s-.786-1.689-2.043-.621a2.886,2.886,0,0,0-.322.306,5.02,5.02,0,0,1-1.7,1.186,7.073,7.073,0,0,1-1.571.448,5,5,0,0,1-.786.086Z" transform="translate(217.487 9.41)" fill="#6c63ff"/>
      <path id="Path_132" data-name="Path 132" d="M250.841,79.613a.5.5,0,0,1,.354.141l-.44-3.528a4.127,4.127,0,0,1-.495.244C250.464,77.335,250.7,78.725,250.841,79.613Z" transform="translate(218.68 10.225)" fill="#444053"/>
      <path id="Path_133" data-name="Path 133" d="M250.933,81.19c.786,1.147,1.289.432,1.289.432,2.027-.707,1.414-5.209,1.414-5.209s-.786-1.689-2.043-.621a5.5,5.5,0,0,1,.629,2.066,4.761,4.761,0,0,1-1.289,3.331Z" transform="translate(219.374 9.41)" fill="#6c63ff"/>
      <path id="Path_134" data-name="Path 134" d="M250.933,81.19c.786,1.147,1.289.432,1.289.432,2.027-.707,1.414-5.209,1.414-5.209s-.786-1.689-2.043-.621a5.5,5.5,0,0,1,.629,2.066,4.761,4.761,0,0,1-1.289,3.331Z" transform="translate(219.374 9.41)" opacity="0.1"/>
      <path id="Path_135" data-name="Path 135" d="M252.3,91.639a15.359,15.359,0,0,0,2.357-7.857c.377-.55.841-1.076,1.265-1.076a.5.5,0,0,1,.354.141,1.021,1.021,0,0,1,.22.275c.071.134.141.244.2.346.786,1.147,1.289.432,1.289.432,2.027-.707,1.414-5.209,1.414-5.209s-.786-1.689-2.043-.621a2.885,2.885,0,0,0-.322.306,5.021,5.021,0,0,1-1.7,1.186,7.072,7.072,0,0,1-1.571.448,10.558,10.558,0,0,0-1.454-2.184,17.921,17.921,0,0,0-6.993-4.612C246.418,80.184,248.469,87.522,252.3,91.639Z" transform="translate(213.58 7.116)" opacity="0.1"/>
      <path id="Path_136" data-name="Path 136" d="M254.176,107.61a13.639,13.639,0,0,0,1.689-.377,14.792,14.792,0,0,0,1.5-.519l.322-.134c.416-.181.841-.377,1.265-.6s.636-.33.958-.511c5.979-3.449,11.785-10.387,14.378-17.426A22.871,22.871,0,0,0,275.7,82.06a16.109,16.109,0,0,0-.047-3.261,23.015,23.015,0,0,0-2.923-8.807c-.173-.291-.338-.566-.519-.833-3.928-6.065-10.536-9.727-17.56-8.988,1.524,4.408,3.693,8.163,6.749,10.12.251.621.424,1.3.189,1.658a.566.566,0,0,1-.314.2.967.967,0,0,1-.354,0h-.4c-1.383,0-1.069.786-1.069.786-.542,2.082,3.536,4.07,3.536,4.07s1.831.306,1.658-1.344a2.416,2.416,0,0,0-.086-.44,4.391,4.391,0,0,1-.11-1.524,4.09,4.09,0,0,1,.079-.542,6.416,6.416,0,0,1,.5-1.571,10.1,10.1,0,0,0,2.624,0,13.938,13.938,0,0,0,3.583-.974c-.165.259-.314.519-.456.786a15.414,15.414,0,0,0-2.357,7.857c-.361.55-.786,1.084-1.257,1.084a.518.518,0,0,1-.346-.134,1.083,1.083,0,0,1-.228-.283c-.071-.126-.141-.236-.2-.338-.786-1.131-1.289-.424-1.289-.424-2.019.739-1.367,5.225-1.367,5.225s.786,1.681,2.051.6a1.973,1.973,0,0,0,.314-.314,4.39,4.39,0,0,1,1.194-.943,4.2,4.2,0,0,1,.5-.251,6.733,6.733,0,0,1,1.571-.464,10.009,10.009,0,0,0,1.469,2.176l.314.338-.11.1a62.066,62.066,0,0,0-6.969,7.417,27.841,27.841,0,0,0-1.791,2.5q-.581.888-1.084,1.768a15.454,15.454,0,0,0-2.31,7.857c-.362.55-.786,1.076-1.257,1.084a.558.558,0,0,1-.354-.134,1.07,1.07,0,0,1-.22-.283c-.079-.126-.141-.236-.212-.338-.786-1.131-1.281-.424-1.281-.424A2.966,2.966,0,0,0,254.176,107.61Z" transform="translate(222.722 -6.443)" opacity="0.1"/>
      <g id="Group_10" data-name="Group 10" transform="translate(458.234 53.335)" opacity="0.1">
        <path id="Path_137" data-name="Path 137" d="M259.873,66.4a2.828,2.828,0,0,0,1.32.181,4.581,4.581,0,0,1,1.933.534c-.3-4.023-5.8-5.185-5.8-5.185a7.465,7.465,0,0,1,2.546,4.471Z" transform="translate(-232.259 -57.867)"/>
        <path id="Path_138" data-name="Path 138" d="M245.169,83.107c.1.786.212,1.642.346,2.475,3.575,1.084,7,1.43,9.868.519.636.2,1.265.5,1.383.911a.5.5,0,0,1,0,.377.935.935,0,0,1-.212.291,3.877,3.877,0,0,0-.259.291c-.88,1.076-.055,1.351-.055,1.351,1.249,1.744,5.39-.126,5.39-.126s1.406-1.21,0-2.129a3.354,3.354,0,0,0-.385-.22,4.384,4.384,0,0,1-1.249-.888c-.126-.126-.251-.259-.369-.4a7.354,7.354,0,0,1-.88-1.391,9.546,9.546,0,0,0,1.689-2.011c3.323-5.193,3.261-14.323.629-22.227C250.85,61.376,243.763,71.715,245.169,83.107Z" transform="translate(-244.991 -59.93)"/>
        <path id="Path_139" data-name="Path 139" d="M250.1,83.2a8.956,8.956,0,0,0,3.622,1.359,5.726,5.726,0,0,1,.369-.707l-4.635-1.886A10.882,10.882,0,0,1,250.1,83.2Z" transform="translate(-240.384 -37.185)"/>
        <path id="Path_140" data-name="Path 140" d="M252.37,89.975s1.839.314,1.658-1.344a2.355,2.355,0,0,0-.078-.44,4.406,4.406,0,0,1-.11-1.524,3.919,3.919,0,0,1,.071-.542,7.072,7.072,0,0,1,.5-1.571,5.712,5.712,0,0,1,.369-.707l-4.628-1.878a10.889,10.889,0,0,1,.629,1.273c.244.621.416,1.3.181,1.658a.518.518,0,0,1-.306.212,1.037,1.037,0,0,1-.361,0,3.56,3.56,0,0,0-.393,0c-1.391,0-1.076.786-1.076.786C248.292,87.995,252.37,89.975,252.37,89.975Z" transform="translate(-241.083 -37.185)"/>
        <path id="Path_141" data-name="Path 141" d="M249.7,83.631l3.143,1.571a2.052,2.052,0,0,1,.071-.542c-.825-.322-2.121-.9-2.938-1.257a.527.527,0,0,1-.275.228Z" transform="translate(-240.128 -35.705)"/>
        <path id="Path_142" data-name="Path 142" d="M252.371,88.391s1.831.306,1.658-1.351a5.579,5.579,0,0,1-2.074-.613A4.792,4.792,0,0,1,249.9,83.5c-1.391,0-1.076.786-1.076.786C248.285,86.411,252.371,88.391,252.371,88.391Z" transform="translate(-241.083 -35.601)"/>
        <path id="Path_143" data-name="Path 143" d="M252.371,88.391s1.831.306,1.658-1.351a5.579,5.579,0,0,1-2.074-.613A4.792,4.792,0,0,1,249.9,83.5c-1.391,0-1.076.786-1.076.786C248.285,86.411,252.371,88.391,252.371,88.391Z" transform="translate(-241.083 -35.601)" opacity="0.1"/>
        <path id="Path_144" data-name="Path 144" d="M259.873,66.4a2.828,2.828,0,0,0,1.32.181,4.581,4.581,0,0,1,1.933.534c-.3-4.023-5.8-5.185-5.8-5.185a7.465,7.465,0,0,1,2.546,4.471Z" transform="translate(-232.259 -57.867)" opacity="0.1"/>
      </g>
      <path id="Path_145" data-name="Path 145" d="M245.727,83.511C247.149,95.06,251.132,109,261.5,107.717s23.193-17.285,21.771-28.842-11-19.862-21.355-18.581S244.3,71.969,245.727,83.511Z" transform="translate(213.816 -6.353)" fill="#6c63ff"/>
      <path id="Path_146" data-name="Path 146" d="M252.93,90.308s1.831.314,1.658-1.344a3.474,3.474,0,0,0-.079-.44A4.218,4.218,0,0,1,254.391,87a3.118,3.118,0,0,1,.079-.542,7.069,7.069,0,0,1,.872-2.271l-4.62-1.925s1.3,2.192.786,2.938a.542.542,0,0,1-.314.212,1.21,1.21,0,0,1-.354,0h-.393c-1.391,0-1.076.786-1.076.786C248.852,88.336,252.93,90.308,252.93,90.308Z" transform="translate(217.715 16.454)" fill="#6c63ff"/>
      <path id="Path_147" data-name="Path 147" d="M250.256,83.933,253.4,85.5a3.109,3.109,0,0,1,.079-.542c-.833-.322-2.121-.9-2.938-1.257A.542.542,0,0,1,250.256,83.933Z" transform="translate(218.676 17.942)" fill="#444053"/>
      <path id="Path_148" data-name="Path 148" d="M252.92,88.7s1.831.314,1.658-1.344a5.5,5.5,0,0,1-2.074-.621,4.761,4.761,0,0,1-2.043-2.923c-1.391,0-1.076.786-1.076.786C248.842,86.732,252.92,88.7,252.92,88.7Z" transform="translate(217.725 18.058)" fill="#6c63ff"/>
      <path id="Path_149" data-name="Path 149" d="M252.92,88.7s1.831.314,1.658-1.344a5.5,5.5,0,0,1-2.074-.621,4.761,4.761,0,0,1-2.043-2.923c-1.391,0-1.076.786-1.076.786C248.842,86.732,252.92,88.7,252.92,88.7Z" transform="translate(217.725 18.058)" opacity="0.1"/>
      <path id="Path_150" data-name="Path 150" d="M257.892,62.25s5.5,1.163,5.8,5.185a4.51,4.51,0,0,0-1.941-.526,2.86,2.86,0,0,1-1.312-.189A7.519,7.519,0,0,0,257.892,62.25Z" transform="translate(226.557 -4.2)" fill="#fff" opacity="0.1"/>
      <path id="Path_151" data-name="Path 151" d="M254,84.327a3.347,3.347,0,0,1,2.978,4.117c-.691,2.318-3.536,3.048-5.39,4.6a9.448,9.448,0,0,0-2.97,6.435,15.776,15.776,0,0,0,4.533,12.477c1.666,1.642,3.677,2.9,5.319,4.565a27.168,27.168,0,0,1,4.6,7.008,16.4,16.4,0,0,1,2.035,5.893c.275,3.308-1.391,6.474-3.378,9.13s-4.368,5.06-5.908,8a16.805,16.805,0,0,0-.966,13.176,1.705,1.705,0,0,0,.558.88.621.621,0,0,0,.911-.2" transform="translate(216.927 18.585)" fill="none" stroke="#444053" stroke-miterlimit="10" stroke-width="0.387"/>
      <path id="Path_152" data-name="Path 152" d="M264.089,84.041a1.571,1.571,0,0,1,.071,2,2.428,2.428,0,0,1-1.917.888c-.888,0-1.878-.275-2.608.244a2.255,2.255,0,0,0-.786,1.7,8.7,8.7,0,0,1-.2,1.925,3.835,3.835,0,0,1-.849,1.383,4.251,4.251,0,0,1-1.571,1.147c-1.312.511-2.828.047-4.172.471-1.768.558-2.718,2.467-3.253,4.243a12.217,12.217,0,0,0-.385,6.584,22.784,22.784,0,0,0,1.783,4.038,9.137,9.137,0,0,1,1.163,4.211,3.865,3.865,0,0,1-2.216,3.536" transform="translate(216.494 18.289)" fill="none" stroke="#444053" stroke-miterlimit="10" stroke-width="0.387"/>
      <path id="Path_153" data-name="Path 153" d="M306.77,111.425c-2.113,2.813-2.915,7.307-6.372,7.99-1.783.354-3.551-.566-5.146-1.446-3.716-2.074-7.542-4.164-11.785-4.848s-8.925.3-11.707,3.528c-1.893,2.216-2.671,5.185-4.337,7.574a15.54,15.54,0,0,1-8.8,5.783,36.009,36.009,0,0,1-10.67.911,5.8,5.8,0,0,1-3.763-1.021,9.161,9.161,0,0,1-1.571-2.4c-1.7-2.86-5.076-4.431-8.4-4.643a22.078,22.078,0,0,0-9.68,2.051c-1.571.644-3.143,1.383-4.824,1.218-2.357-.236-4.093-2.137-5.547-3.968a78.567,78.567,0,0,1-9.53-15.509" transform="translate(171.598 41.621)" fill="none" stroke="#444053" stroke-miterlimit="10" stroke-width="0.387"/>
      <path id="Path_154" data-name="Path 154" d="M192.533,365.419c.841-3.056,1.391-5.743,1.391-5.743a12.021,12.021,0,0,1,1.571-5.822l.039-.841h0l.236-6.2a20.87,20.87,0,0,0-1.438-3.308c-1.045-1.988.354-9.09.354-9.09s4.526-9.907,3.763-16.326,9.585-28.033,9.585-28.033a27.8,27.8,0,0,0-.652-6.285,5.348,5.348,0,0,1-.071-1.32v-.11c.306-4.2,3.928-11.974,3.928-11.974l.134-15.054s-1.784-8.957,2.145-20.734c1.367-4.109,2.271-7.4,2.86-9.947.071-.291.134-.566.189-.833-7.071-1.367-12.508-2.483-12.508-2.483s4.8-17.151,7.715-20.074,5.5-12.367,5.5-12.367,1.925-12.17-.291-15.831-2.278-9.876-2.278-9.876-5.217-4.1-5.822-5.861a28.7,28.7,0,0,1-1.493-7.755c.079-2.058.786-3.873.636-4.958s1.768-5.138.943-7.118a5.5,5.5,0,0,1-.283-1.893s0,0,0-.055a26.317,26.317,0,0,1,.668-5.06,14.33,14.33,0,0,1,5.421-2.632l.134-.464.346-1.2c.189-.118.369-.212.542-.3v-.44l.118-1.76-.691-3.983c-1.383-6.93,7.857-7.605,7.857-7.605a4.824,4.824,0,0,1,2.687-2.176c1.87-.581-.094,10.347-.982,11-.668.5-2.8,3.873-3.834,5.5h0l-.173.275a3.84,3.84,0,0,1,.409.456l-.44,2.357-.071.361a9.924,9.924,0,0,1,1.367,2.553,5.322,5.322,0,0,0-1.493,3.85,12.147,12.147,0,0,1-.739,4.714c.1-.1,1.336-1.336,2.5-.982s4.423,1.469,4.423,1.469,2.443.534,2.2,1.061,1.571,2.986,1.571,2.986l6.883-5.908c.071-.189.149-.369.212-.566a15.464,15.464,0,0,0,.683-2.718,15.066,15.066,0,0,1-2.09-.786,4.541,4.541,0,0,1-1.783-1.241,7.071,7.071,0,0,1-.951-2.891,40.778,40.778,0,0,0-2.247-5.563,17.827,17.827,0,0,1-.943-9.876,6.49,6.49,0,0,1,1.131-2.836c1.131-1.446,3.143-1.972,4.581-3.1s2.459-2.907,4.148-3.732a7.924,7.924,0,0,1,5.036-.236,26.948,26.948,0,0,1,9.24,3.763,4.769,4.769,0,0,0,3.088,1.147,4.156,4.156,0,0,0,2.357-1.571v-.086l.071-.086a11.667,11.667,0,0,1,.841,4.989,3.316,3.316,0,0,1-.063.786v.275a1.128,1.128,0,0,0,0,.228h0a1.36,1.36,0,0,0,0,.354,2.538,2.538,0,0,0,.581.919,4.71,4.71,0,0,1,.511.786.909.909,0,0,0-.079-.275,3.928,3.928,0,0,1,.605,2.113,2.106,2.106,0,0,1-.55,1.469,6.823,6.823,0,0,1-1.116.825,12.571,12.571,0,0,1-6.537,12.877c-.079.181-.165.369-.244.558a15.8,15.8,0,0,0-1.477,7.165,1.535,1.535,0,0,0,.063.526,3.435,3.435,0,0,1,.22.283h0s10.905.526,13.569-1.7,6.285,5.94,6.285,5.94,3.889.9,4.714.181,5.374.094,5.374.094a9.845,9.845,0,0,1,6.914-2.223,20.2,20.2,0,0,1,5.115-2.593h.126a5.649,5.649,0,0,1,2.467-.22s5.539-4.227,7.2-6.545,9.428-10.874,9.491-10.905l.039-.432.134-1.281a4.782,4.782,0,0,0,.668.086c.047-.126.1-.275.173-.44a23.392,23.392,0,0,1,1.721-3.575s.063-1.626-.4-2.051.448-6.356.448-6.356,5.264-11.117,9.279-2.514c0,0,7.975,5.783.856,11.879,0,0-2.789,1.218-3.221,2.255-.283.676-1.289,2.553-1.956,3.795-.118.2-.22.393-.306.558l.079.071-.141,1.053-.063.409c1.273.786,2.121,1.571,1.886,2.1a12.072,12.072,0,0,0-.9,2.891s-9.962,11.534-11.392,16.578c0,0-26.077,14.142-34.5,14.928l1.163,7.629s.267,4.565.094,6.183.66,9.027.66,9.027,1.037,10.874,2.208,12.437.7,8.045.7,8.045a54.291,54.291,0,0,0,1.328,9.263,23.706,23.706,0,0,1,0,9.216s3.873,9.907-6.042,2.907c0,0-4.989-.5-10.732-.919v.581c0,.739,0,1.571-.063,2.357-.134,5.586-.4,13.278-.872,19.084-.849,10.261-4.761,30.484-4.761,30.484l-.393,10.214a13.311,13.311,0,0,1,.181,2.931,18.983,18.983,0,0,1-3.143,10.127l-1.2,6.749s-2.011,4.415-2.153,7.071a3.362,3.362,0,0,0,.055.652,4.778,4.778,0,0,1,.047,1.053c0,3.1-2.161,10.434-2.161,10.434s-.4,7.464-1.571,7.857c-.966.338,1.116,4.353,1.736,5.5a2.05,2.05,0,0,0,.047-.212l.134.236a5.288,5.288,0,0,1,.275,1.9,2.718,2.718,0,0,1-1.343,2.577c-2.176,1.21-3.355,2.255-1.571,2.75.684.2,1.414.267,1.956.495,0-.086.071-.173.1-.251a1.194,1.194,0,0,1,.684,1.344,5.5,5.5,0,0,1-.786,2.506,26.82,26.82,0,0,1-3.237,5.4l-.856-.126a4.192,4.192,0,0,0,.464.943,3.637,3.637,0,0,0,1.218,1.171,3.927,3.927,0,0,0,1.509.581,4.313,4.313,0,0,1,3.143,1.666c1.053,1.477,1.681,3.473-.589,5.115l-8.1,2.451s-13.828,1.257-12.979-1.8,1.4-5.743,1.4-5.743a12.208,12.208,0,0,1,1.367-5.374,5.654,5.654,0,0,1,.519-.786l-.487-.079s-.739-6.851-2.035-8.2c-.3-.314-.361-.55-.275-.723-.126-.377.228-.581.684-.684a1.177,1.177,0,0,0,.086.267,7.151,7.151,0,0,1,1.343-.094s.589-3.551-.786-4.91a1.375,1.375,0,0,1-.244-1.068,5.829,5.829,0,0,1,.212-1.454l.047.086a52.637,52.637,0,0,1,3.528-8.265s.244-3.245-.6-4.573.786-17.639.786-17.639,0-7.912,1.116-11.557-.927-8.053-.927-8.053v-.236a.173.173,0,0,0,0-.055l.181-1.241v.079c.306-2.082.88-5.853,1.257-7.6.542-2.467.448-14.394.448-14.394l-1.823-5.17-3.928,8.642-4.227,11.494a9.986,9.986,0,0,0-2.121,4.895v.369a6.49,6.49,0,0,1,0,.786,6.946,6.946,0,0,1-1.32,4.125s-1.218,5.5-2.836,6.828-1.721,4.046-1.721,4.046-2.216,7.935-3.143,9.31c-.786,1.155-.966,4.416-1,5.413h0v.291s-.377,2.852-.456,5.264v.794a8.731,8.731,0,0,0,.157,1.956s0,.071,0,.11v-.4a20.333,20.333,0,0,1,.385,5.013c-.063,2.876-.629,6.285-2.451,8.2-3.143,3.347-5.036,2.844-5.036,2.844s1.289,4.384,3.041,5.319a.785.785,0,0,1,.189.126.432.432,0,0,1,.055-.251,2.114,2.114,0,0,1,.464,1.634,11.532,11.532,0,0,1-2.467,6.333,3.543,3.543,0,0,1-1.571.825l.275.189c.22.126.416.228.6.314a2.877,2.877,0,0,0,.9.267,4.266,4.266,0,0,1,3.143,1.666c1.061,1.477,1.689,3.473-.581,5.115l-8.108,2.451S191.685,368.476,192.533,365.419Z" transform="translate(159.065 40.23)" fill="url(#linear-gradient-2)"/>
      <path id="Path_155" data-name="Path 155" d="M224.664,244.641l7.857-2.459c2.2-1.65,1.571-3.638.574-5.123a4.1,4.1,0,0,0-3-1.658,3.716,3.716,0,0,1-1.461-.581,3.5,3.5,0,0,1-1.178-1.171,5.711,5.711,0,0,1-.786-3.025s-8.407-2.813-10.827-.416a6.4,6.4,0,0,0-1.084,1.469,12.572,12.572,0,0,0-1.3,5.437s-.534,2.679-1.351,5.743S224.664,244.641,224.664,244.641Z" transform="translate(179.269 168.142)" fill="#2d293d"/>
      <path id="Path_156" data-name="Path 156" d="M206.109,242.027l7.857-2.459c2.2-1.65,1.571-3.638.574-5.115a4.07,4.07,0,0,0-3.009-1.658,3.07,3.07,0,0,1-.872-.275,3.923,3.923,0,0,1-.581-.314c-2.129-1.273-2-4.156-2-4.156s-8.4-2.813-10.819-.416a6.2,6.2,0,0,0-.856,1.076,12.28,12.28,0,0,0-1.524,5.83s-.542,2.687-1.359,5.743S206.109,242.027,206.109,242.027Z" transform="translate(160.088 165.484)" fill="#2d293d"/>
      <path id="Path_157" data-name="Path 157" d="M214.477,230.209a6.4,6.4,0,0,0-1.084,1.469h0l12.681,1.964a5.712,5.712,0,0,1-.786-3.025S216.9,227.813,214.477,230.209Z" transform="translate(180.632 168.141)" opacity="0.1"/>
      <path id="Path_158" data-name="Path 158" d="M194.987,228.67l-.094,2.357c1.854,3.347,11.463,3,14.307,1.469a3.928,3.928,0,0,1-.581-.314c-2.121-1.249-1.988-4.133-1.988-4.133s-8.4-2.813-10.819-.416A6.211,6.211,0,0,0,194.987,228.67Z" transform="translate(161.538 165.484)" opacity="0.1"/>
      <path id="Path_159" data-name="Path 159" d="M194.57,286.478a20.91,20.91,0,0,1,1.391,3.308l-.33,8.548c2.027,3.653,13.357,2.9,14.928,1.006s3.41-6.914,1.713-7.857-2.938-5.319-2.938-5.319,1.823.5,4.879-2.844,2.483-11.07,2.011-12.932.314-8.006.314-8.006.055-4.337.974-5.7,3.072-9.318,3.072-9.318.1-2.7,1.673-4.054,2.75-6.828,2.75-6.828a7.071,7.071,0,0,0,1.265-4.612c-.22-2.718,2.058-5.555,2.058-5.555l4.125-11.549,3.8-8.642,1.721,5.225s.079,11.927-.448,14.4-1.43,9.051-1.43,9.051,2,4.408.88,8.053-1.092,11.549-1.092,11.549-1.571,16.311-.786,17.638.581,4.573.581,4.573-4.808,9.357-3.449,10.709.786,4.91.786,4.91-3.025-.118-1.776,1.234,2.019,8.163,2.019,8.163l13.027,2.019a27.345,27.345,0,0,0,3.143-5.405c1.886-3.928-.181-3.591-1.909-4.086s-.581-1.571,1.524-2.758,1.029-4.188,1.029-4.188-2.938-5.429-1.839-5.822,1.5-7.857,1.5-7.857,2.5-8.792,2.051-11.2,2.043-8.053,2.043-8.053l1.021-6.788a18.738,18.738,0,0,0,2.876-12.783l.409-10.5s3.81-20.231,4.643-30.5c.526-6.568.786-15.564.919-21.174.071-3.143.094-5.233.094-5.233l-46.567-6.67a38.133,38.133,0,0,1-1.116,6.914c-.574,2.553-1.453,5.845-2.781,9.955-3.818,11.785-2.1,20.734-2.1,20.734l-.149,15.054s-4.5,9.907-3.771,13.4a28.581,28.581,0,0,1,.629,6.285s-10.049,21.614-9.318,28.033-3.661,16.334-3.661,16.334S193.565,284.49,194.57,286.478Z" transform="translate(160.831 97.338)" fill="#3f3d56"/>
      <path id="Path_160" data-name="Path 160" d="M215.793,196.566l-14.142-2.443S209.382,202.655,215.793,196.566Z" transform="translate(168.514 131.898)" opacity="0.05"/>
      <path id="Path_161" data-name="Path 161" d="M203.417,187.318s-.684,5.013,2.357,7.024C205.742,194.342,200.258,193.234,203.417,187.318Z" transform="translate(169.325 124.875)" opacity="0.1"/>
      <path id="Path_162" data-name="Path 162" d="M203.65,179.45s11.526,10.253,15.879,9.609S203.65,179.45,203.65,179.45Z" transform="translate(170.577 116.755)" opacity="0.1"/>
      <path id="Path_163" data-name="Path 163" d="M217.206,197.92s8.957,2.4,9.082,6.042S217.206,197.92,217.206,197.92Z" transform="translate(184.567 135.816)" opacity="0.1"/>
      <path id="Path_164" data-name="Path 164" d="M216.542,220.094s12.673,2.868,8.988,4.353a61.609,61.609,0,0,1-9.664,2.53S211.741,227.063,216.542,220.094Z" transform="translate(181.483 158.701)" opacity="0.05"/>
      <g id="Group_11" data-name="Group 11" transform="translate(355.021 264.306)" opacity="0.05">
        <path id="Path_165" data-name="Path 165" d="M222.215,224.472a2.514,2.514,0,0,0,1.233-1.807l.126.236s1.076,2.962-1.029,4.18l-.684.416c-.377-.086-.786-.157-1.171-.267C218.962,226.727,220.148,225.69,222.215,224.472Z" transform="translate(-167.717 -102.951)"/>
        <path id="Path_166" data-name="Path 166" d="M213.059,223.949c-.338-.338-.291-1.171-.039-2.231a6.01,6.01,0,0,1,.6,3.143A2.552,2.552,0,0,0,213.059,223.949Z" transform="translate(-174.982 -103.929)"/>
        <path id="Path_167" data-name="Path 167" d="M215.012,196.358a14.52,14.52,0,0,1,.707,4.007,16.277,16.277,0,0,0-.88-2.773S214.9,197.112,215.012,196.358Z" transform="translate(-172.897 -130.101)"/>
        <path id="Path_168" data-name="Path 168" d="M200.682,193.608a5.065,5.065,0,0,1-.071-1.186c.126.786.212,1.571.267,2.231C200.823,194.307,200.737,193.962,200.682,193.608Z" transform="translate(-187.59 -134.164)"/>
        <path id="Path_169" data-name="Path 169" d="M214.479,216.524a6.985,6.985,0,0,1-.236-2.42,8.132,8.132,0,0,1,.511,3.064,3.052,3.052,0,0,0-.275-.644Z" transform="translate(-173.534 -111.786)"/>
        <path id="Path_170" data-name="Path 170" d="M213.018,225.29a42.137,42.137,0,0,1,1.241,6.7l13.027,2.019a27.338,27.338,0,0,0,3.143-5.405c.165-.346.3-.66.409-.943.786.393,1.045,1.218-.079,3.551a27.293,27.293,0,0,1-3.143,5.413l-13.027-2.019s-.715-6.859-1.964-8.21C211.98,225.738,212.4,225.432,213.018,225.29Z" transform="translate(-175.514 -100.242)"/>
        <path id="Path_171" data-name="Path 171" d="M222.557,270.031s-.393,7.464-1.493,7.857h0c-.495-1.257-.786-2.443-.322-2.616,1.1-.393,1.493-7.857,1.493-7.857s2.506-8.792,2.058-11.2,2.043-8.045,2.043-8.045l1.021-6.788a18.762,18.762,0,0,0,2.876-12.791l.4-10.5s3.818-20.231,4.643-30.492c.534-6.576.786-15.564.927-21.174,0-1.014.039-1.917.047-2.679l.377.055s0,2.09-.094,5.233c-.126,5.61-.393,14.606-.919,21.174-.833,10.269-4.643,30.5-4.643,30.5l-.409,10.5a18.738,18.738,0,0,1-2.876,12.783l-1.021,6.788s-2.491,5.649-2.043,8.053S222.557,270.031,222.557,270.031Z" transform="translate(-167.046 -163.752)"/>
        <path id="Path_172" data-name="Path 172" d="M209.506,230.041a12.7,12.7,0,0,0,2.271-5.068c1.288,1.257-.432,5.885-1.941,7.676s-12.893,2.648-14.928-1.006l.079-2.058C197.815,232.594,208,231.824,209.506,230.041Z" transform="translate(-193.467 -100.569)"/>
        <path id="Path_173" data-name="Path 173" d="M194.257,221.174a21.914,21.914,0,0,1,1.391,3.308L195.584,226c-.22-.558-.542-1.312-1-2.208a6.466,6.466,0,0,1-.369-2.695Z" transform="translate(-194.199 -104.571)"/>
        <path id="Path_174" data-name="Path 174" d="M202.455,230.287a20.468,20.468,0,0,1-.966-2.616s1.823.5,4.871-2.844c2.231-2.436,2.53-7.189,2.357-10.316.471,1.862,1.045,9.577-2.011,12.932C204.694,229.635,203.233,230.169,202.455,230.287Z" transform="translate(-186.676 -111.367)"/>
        <path id="Path_175" data-name="Path 175" d="M205.6,240.474a56.79,56.79,0,0,0-.464,6.4,10.079,10.079,0,0,0-.189-1.013c-.471-1.854.314-8.006.314-8.006s.063-4.329.982-5.7,3.064-9.31,3.064-9.31.1-2.711,1.673-4.054,2.758-6.835,2.758-6.835A7.126,7.126,0,0,0,215,207.342c-.22-2.718,2.058-5.555,2.058-5.555l4.133-11.549,3.795-8.642,1.752,5.162v1.65l-1.414-4.2-3.779,8.642L217.421,204.4s-2.279,2.836-2.059,5.555a7.071,7.071,0,0,1-1.265,4.612s-1.186,5.5-2.75,6.828-1.673,4.054-1.673,4.054-2.153,7.943-3.072,9.31S205.6,240.474,205.6,240.474Z" transform="translate(-183.257 -145.336)"/>
      </g>
      <path id="Path_176" data-name="Path 176" d="M204.562,117.37l.66,3.983-.11,1.76-.086,1.3,4.494.636.542-.919h0c1.006-1.658,3.072-5.028,3.724-5.5.864-.676,2.773-11.6.958-11a4.714,4.714,0,0,0-2.6,2.184S203.226,110.44,204.562,117.37Z" transform="translate(171.377 42.606)" fill="#ffcdd3"/>
      <path id="Path_177" data-name="Path 177" d="M204.721,116.768l4.494.636.542-.919h0a3.968,3.968,0,0,0-4.95-1.014Z" transform="translate(171.682 50.248)" opacity="0.1"/>
      <path id="Path_178" data-name="Path 178" d="M204.118,118.644l5.9,1.571.165-.88.424-2.357a4.1,4.1,0,0,0-5.735-1.014l-.338,1.21Z" transform="translate(171.059 50.461)" fill="#dce6f2"/>
      <path id="Path_179" data-name="Path 179" d="M251.752,123.954l6.23,3.653.621-1.178c.652-1.241,1.626-3.143,1.9-3.795.416-1.037,3.143-2.263,3.143-2.263,6.9-6.1-.786-11.872-.786-11.872-3.873-8.6-8.988,2.522-8.988,2.522s-.872,5.932-.432,6.356.385,2.043.385,2.043A23.693,23.693,0,0,0,252.153,123,7.367,7.367,0,0,0,251.752,123.954Z" transform="translate(220.22 40.163)" fill="#ffcdd3"/>
      <path id="Path_180" data-name="Path 180" d="M251.752,114.923l6.23,3.653.621-1.178c-.872-.786-3.928-3.488-5-3.41a7.454,7.454,0,0,1-1.508,0C251.87,114.545,251.752,114.923,251.752,114.923Z" transform="translate(220.22 49.194)" opacity="0.1"/>
      <path id="Path_181" data-name="Path 181" d="M251.4,116.66l7.008,3.795.2-1.571.141-1.053s-4.007-3.708-5.233-3.622a6.45,6.45,0,0,1-1.862-.079l-.134,1.289Z" transform="translate(219.853 49.342)" fill="#dce6f2"/>
      <path id="Path_182" data-name="Path 182" d="M212.519,137.793s31.011,4.714,25.26,2.593c-4-1.477-5.5-4.109-5.743-6.985a16.287,16.287,0,0,1,1.438-7.158,30.839,30.839,0,0,1,3-5.5s-23.3-14.016-19-1.925a19.137,19.137,0,0,1,1.131,5.7,15.926,15.926,0,0,1-.833,5.68,17.072,17.072,0,0,1-5.256,7.6Z" transform="translate(179.73 49.107)" fill="#ffcdd3"/>
      <path id="Path_183" data-name="Path 183" d="M215.248,118.8a19.137,19.137,0,0,1,1.131,5.7c2.168,1.964,4.636,1.941,7.786,2.058,2.436.094,5.1.786,7.071-.306a30.835,30.835,0,0,1,3-5.5S210.911,106.71,215.248,118.8Z" transform="translate(181.991 49.094)" opacity="0.1"/>
      <circle id="Ellipse_9" data-name="Ellipse 9" cx="12.885" cy="12.885" r="12.885" transform="translate(394.127 150.72)" fill="#ffcdd3"/>
      <path id="Path_184" data-name="Path 184" d="M212.519,130.124s31.011,4.714,25.26,2.593c-4-1.477-5.5-4.109-5.743-6.985-1.485-1.736-4.557-3.072-6.529-3.795a9.357,9.357,0,0,0-5.641-.306,7.951,7.951,0,0,0-2.09.872A17.072,17.072,0,0,1,212.519,130.124Z" transform="translate(179.73 56.777)" opacity="0.1"/>
      <path id="Path_185" data-name="Path 185" d="M204.118,117.736l5.9,1.571.165-.88a5.264,5.264,0,0,0-5.649-2.176Z" transform="translate(171.059 51.369)" opacity="0.1"/>
      <path id="Path_186" data-name="Path 186" d="M251.4,116.005,258.4,119.8l.2-1.571a52.752,52.752,0,0,0-7.071-3.465Z" transform="translate(219.853 49.996)" opacity="0.1"/>
      <path id="Path_187" data-name="Path 187" d="M204.968,167.553c11.989,2.357,29.07,5.5,31.812,4.785,2.286-.6,9.507-.251,15.776.2.071-3.143.094-5.233.094-5.233l-46.567-6.67a38.141,38.141,0,0,1-1.116,6.914Z" transform="translate(171.937 97.342)" opacity="0.1"/>
      <path id="Path_188" data-name="Path 188" d="M199.122,211.351s39.457,8.344,43.77,7.213,26.14,1.116,26.14,1.116c9.593,6.977,5.861-2.923,5.861-2.923a23.843,23.843,0,0,0,0-9.208,56.473,56.473,0,0,1-1.265-9.263s.464-6.482-.668-8.045-2.121-12.437-2.121-12.437-.786-7.4-.629-9.02-.086-6.183-.086-6.183l-1.116-7.629c8.155-.786,33.415-14.975,33.415-14.975,1.391-5.036,11.047-16.594,11.047-16.594a12.262,12.262,0,0,1,.864-2.891c.723-1.7-8.886-5.5-8.886-5.5s-7.6,8.6-9.2,10.913-6.977,6.56-6.977,6.56a5.3,5.3,0,0,0-2.357.22h-.126a19.288,19.288,0,0,0-4.958,2.6,9.428,9.428,0,0,0-6.694,2.231s-4.415-.786-5.2-.094-4.541-.173-4.541-.173-3.481-8.155-6.058-5.924-13.144,1.721-13.144,1.721c-1.328-1.925-4.714-3.4-6.82-4.172a9.357,9.357,0,0,0-5.641-.314,7.2,7.2,0,0,0-2.271,1l-6.647,6.026s-1.752-2.451-1.516-2.986-2.121-1.061-2.121-1.061-3.143-1.092-4.282-1.461-2.318.872-2.42.982a12.633,12.633,0,0,0,.723-4.714,5.431,5.431,0,0,1,1.446-3.842c-3.426-9.428-12.28-2-12.28-2s-1.171,5.052-.377,7.032-1.1,6.026-.927,7.118-.542,2.907-.621,4.965a29.484,29.484,0,0,0,1.438,7.747c.581,1.752,5.625,5.853,5.625,5.853s.086,6.183,2.224,9.845.259,15.831.259,15.831-2.53,9.428-5.358,12.367S199.122,211.351,199.122,211.351Z" transform="translate(165.904 50.252)" fill="#3f3d56"/>
      <path id="Path_189" data-name="Path 189" d="M229.043,131.754s1.328-3.528,2.42-3.811a25.059,25.059,0,0,0,3.2-1.289l-.644-1.359s-4.109.959-4.808,2.129S229.043,131.754,229.043,131.754Z" transform="translate(196.582 60.866)" opacity="0.1"/>
      <path id="Path_190" data-name="Path 190" d="M239.8,126.339c.181,1.084,9.774,2.436,9.774,2.436l-4.714-5.075h-.118A19.288,19.288,0,0,0,239.8,126.339Z" transform="translate(207.882 59.218)" opacity="0.1"/>
      <path id="Path_191" data-name="Path 191" d="M250.57,142.9c.11-.118-25.472,29.746-43.731,11.219C206.871,154.124,236.609,159.333,250.57,142.9Z" transform="translate(173.869 79.038)" opacity="0.1"/>
      <path id="Path_192" data-name="Path 192" d="M239.372,135.3a47.086,47.086,0,0,1-6.034,9.475,38.058,38.058,0,0,1-9.2,8.218S239.05,137.3,239.372,135.3Z" transform="translate(191.721 71.193)" opacity="0.1"/>
      <path id="Path_193" data-name="Path 193" d="M239.007,127.044s-2.844,10.418-9.255,13.749Z" transform="translate(197.515 62.67)" opacity="0.1"/>
      <path id="Path_194" data-name="Path 194" d="M240.489,127.641c.071-.2,1.846,8.4-8.6,12.712C231.894,140.353,236.31,139.041,240.489,127.641Z" transform="translate(199.726 63.283)" opacity="0.1"/>
      <path id="Path_195" data-name="Path 195" d="M208.275,122.961c.165,0-5.193,3.143-6.67,4.62C201.6,127.6,205.2,122.639,208.275,122.961Z" transform="translate(168.466 58.44)" opacity="0.1"/>
      <path id="Path_196" data-name="Path 196" d="M231.385,134.937a2.7,2.7,0,0,1-1.069,1.7,2.608,2.608,0,0,1-1.226.228c-3.928.094-8.03.11-11.6-1.571a4.384,4.384,0,0,1-1.721-1.241,7.2,7.2,0,0,1-.919-2.883,42.445,42.445,0,0,0-2.168-5.563,18.384,18.384,0,0,1-.9-9.829,6.655,6.655,0,0,1,1.092-2.844c1.1-1.446,3.017-1.972,4.439-3.1s2.357-2.907,4.023-3.732a7.188,7.188,0,0,1,4.871-.244,25.449,25.449,0,0,1,8.941,3.756,4.571,4.571,0,0,0,2.993,1.147,4.164,4.164,0,0,0,2.286-1.626,11.841,11.841,0,0,1,.786,5.649,2.563,2.563,0,0,0,0,.849,2.64,2.64,0,0,0,.566.911c.927,1.163,1.461,2.97.464,4.062-.432.487-1.084.731-1.508,1.218-.786.872-.574,2.184-.6,3.347a1.72,1.72,0,0,1-.33,1.131,1.673,1.673,0,0,1-1.571.314,4.463,4.463,0,0,0-1.689-.228,2.868,2.868,0,0,0-1.516,1.076C233.059,129.68,232.257,132.187,231.385,134.937Z" transform="translate(178.66 40.485)" fill="#3f3d56"/>
      <g id="Group_12" data-name="Group 12" transform="translate(393.907 149.447)" opacity="0.1">
        <path id="Path_197" data-name="Path 197" d="M213.453,127.231a4.359,4.359,0,0,0,1.728,1.241c3.575,1.65,7.668,1.634,11.6,1.571a2.813,2.813,0,0,0,1.226-.228,2.7,2.7,0,0,0,1.069-1.7c.872-2.742,1.673-5.248,3.575-7.487a2.836,2.836,0,0,1,1.516-1.076,4.462,4.462,0,0,1,1.689.228,1.658,1.658,0,0,0,1.571-.322,1.721,1.721,0,0,0,.33-1.131c0-1.155-.165-2.467.589-3.339.424-.495,1.076-.739,1.516-1.218a2.522,2.522,0,0,0,.346-2.569c.644,1.116.9,2.53.055,3.449-.44.479-1.092.731-1.516,1.218-.786.872-.566,2.184-.589,3.347a1.721,1.721,0,0,1-.33,1.131,1.673,1.673,0,0,1-1.571.314,4.5,4.5,0,0,0-1.689-.228,2.837,2.837,0,0,0-1.516,1.076c-1.9,2.239-2.711,4.714-3.575,7.5a2.7,2.7,0,0,1-1.069,1.7,2.608,2.608,0,0,1-1.226.228c-3.928.094-8.03.11-11.6-1.571a4.36,4.36,0,0,1-1.729-1.241,3.5,3.5,0,0,1-.519-1.061Z" transform="translate(-213.335 -103.134)"/>
        <path id="Path_198" data-name="Path 198" d="M226.486,113.529a1.862,1.862,0,0,1-.369-.668,2.355,2.355,0,0,1,0-.841,11.981,11.981,0,0,0-.424-4.714l.071-.079a11.934,11.934,0,0,1,.746,5.649,4.153,4.153,0,0,0-.024.652Z" transform="translate(-200.582 -107.228)"/>
      </g>
      <path id="Path_199" data-name="Path 199" d="M231.165,124.387s-16.177,1.509-17.528-.966" transform="translate(180.884 58.931)" opacity="0.1"/>
      <path id="Path_200" data-name="Path 200" d="M212.581,120.031s-8.941-.33-11,2.946" transform="translate(168.442 55.423)" opacity="0.1"/>
    </g>
  </g>
</svg>
