<svg xmlns="http://www.w3.org/2000/svg" xmlns:xlink="http://www.w3.org/1999/xlink" width="226.357" height="287.206" viewBox="0 0 226.357 287.206">
  <defs>
    <clipPath id="clip-path">
      <rect id="Rectangle_7" data-name="Rectangle 7" width="177" height="256" transform="translate(1458 764)" fill="#21293e" stroke="#707070" stroke-width="1"/>
    </clipPath>
  </defs>
  <g id="Mask_Group_3" data-name="Mask Group 3" transform="matrix(0.978, 0.208, -0.208, 0.978, -1214.069, -1050.44)" clip-path="url(#clip-path)">
    <path id="musical-note" d="M201.924,162.5a106.129,106.129,0,0,0,14.232-46.725,65.234,65.234,0,0,0-6.88-32.415c-8.079-16.551-21.957-25.849-35.363-34.833-10.006-6.7-19.461-13.033-26.144-22.075l-1.2-1.612c-3.951-5.307-8.413-11.323-9.121-16.374A9.938,9.938,0,0,0,127.03.017a9.8,9.8,0,0,0-9.141,9.789V184.952A56.864,56.864,0,0,0,88.4,176.892c-27.088,0-49.143,17.633-49.143,39.314S61.316,255.521,88.4,255.521s49.143-17.633,49.143-39.314V101.644c14.763,5.642,38.921,20.011,45.565,53.566a55.437,55.437,0,0,1-3.794,5.366,9.819,9.819,0,1,0,14.743,12.974,73.073,73.073,0,0,0,7.214-10.143A6.188,6.188,0,0,0,201.924,162.5Z" transform="translate(1418.74 764.239)" fill="#21293e"/>
  </g>
</svg>
